<?xml version="1.0" encoding="utf-8"?>
<!-- Generator: Adobe Illustrator 19.0.0, SVG Export Plug-In . SVG Version: 6.00 Build 0)  -->
<svg version="1.1" xmlns="http://www.w3.org/2000/svg" xmlns:xlink="http://www.w3.org/1999/xlink" x="0px" y="0px"
	 viewBox="0 0 750 500" style="enable-background:new 0 0 750 500;" xml:space="preserve">
<style type="text/css">
	.st0{opacity:0.47;fill:#A5DEF6;}
	.st1{opacity:0.3;}
	.st2{fill:#4385F4;}
	.st3{fill:none;stroke:#0254A9;stroke-width:0.7739;stroke-linecap:round;stroke-linejoin:round;stroke-miterlimit:10;}
	.st4{fill:none;stroke:#0254A9;stroke-width:1.8958;stroke-linecap:round;stroke-linejoin:round;stroke-miterlimit:10;}
	.st5{fill:none;stroke:#0254A9;stroke-width:1.7211;stroke-linecap:round;stroke-linejoin:round;stroke-miterlimit:10;}
	.st6{fill:none;stroke:#0254A9;stroke-width:2.7259;stroke-linecap:round;stroke-linejoin:round;stroke-miterlimit:10;}
	.st7{fill:none;stroke:#0254A9;stroke-width:3.2169;stroke-linecap:round;stroke-linejoin:round;stroke-miterlimit:10;}
	.st8{fill:none;stroke:#0254A9;stroke-width:1.9925;stroke-linecap:round;stroke-linejoin:round;stroke-miterlimit:10;}
	.st9{fill:none;stroke:#0254A9;stroke-width:2.4028;stroke-linecap:round;stroke-linejoin:round;stroke-miterlimit:10;}
	.st10{fill:#EE5F43;}
	.st11{fill:none;stroke:#363A69;stroke-width:1.2212;stroke-linecap:round;stroke-miterlimit:10;}
	.st12{fill:#3CA3A4;}
	.st13{fill:#F8AD26;}
	.st14{fill:none;stroke:#363A69;stroke-width:1.5407;stroke-linecap:round;stroke-miterlimit:10;}
	.st15{fill:none;stroke:#148B7A;stroke-width:0.4108;stroke-linecap:round;stroke-linejoin:round;stroke-miterlimit:10;}
	.st16{fill:none;stroke:#148B7A;stroke-width:0.5901;stroke-linecap:round;stroke-linejoin:round;stroke-miterlimit:10;}
	.st17{fill:none;stroke:#148B7A;stroke-width:0.423;stroke-linecap:round;stroke-linejoin:round;stroke-miterlimit:10;}
	.st18{fill:none;stroke:#148B7A;stroke-width:0.4344;stroke-linecap:round;stroke-linejoin:round;stroke-miterlimit:10;}
	.st19{fill:none;stroke:#148B7A;stroke-width:0.4427;stroke-linecap:round;stroke-linejoin:round;stroke-miterlimit:10;}
	.st20{fill:#EE5E43;}
	.st21{fill:#C4422B;}
	.st22{fill:#BEC6C4;}
	.st23{fill:#FEFEFE;}
	.st24{fill:none;stroke:#BACCC6;stroke-width:1.4277;stroke-linecap:round;stroke-linejoin:round;stroke-miterlimit:10;}
	.st25{fill:none;stroke:#BACCC6;stroke-width:2.0383;stroke-linecap:round;stroke-linejoin:round;stroke-miterlimit:10;}
	.st26{fill:#38AAE3;}
	.st27{fill:#0254A9;}
	.st28{fill:#FABB49;}
	.st29{fill:#D38309;}
	.st30{fill:#13B5A0;}
	.st31{fill:#148A77;}
	.st32{fill:#FAAE26;}
	.st33{fill:#BC6C56;}
	.st34{fill:#034C8A;}
	.st35{clip-path:url(#XMLID_2_);fill:#BC6C56;}
	.st36{clip-path:url(#XMLID_3_);fill:#C4422B;}
	.st37{fill:#282E5B;}
	.st38{fill:#D08B73;}
	.st39{clip-path:url(#XMLID_5_);fill:#282E5B;}
	.st40{clip-path:url(#XMLID_6_);fill:#282E5B;}
	.st41{opacity:0.5;clip-path:url(#XMLID_7_);fill:#BC6C56;}
	.st42{opacity:0.5;fill:#BC6C56;}
	.st43{opacity:0.5;clip-path:url(#XMLID_8_);fill:#BC6C56;}
	.st44{fill:#363A68;}
	.st45{fill:#346EC1;}
	.st46{fill:none;stroke:#034C8A;stroke-width:3.4431;stroke-linecap:round;stroke-linejoin:round;stroke-miterlimit:10;}
	.st47{fill:#034C8A;stroke:#034C8A;stroke-width:0.9735;stroke-linecap:round;stroke-linejoin:round;stroke-miterlimit:10;}
	.st48{clip-path:url(#XMLID_9_);fill:#034C8A;}
	.st49{clip-path:url(#XMLID_10_);fill:#BC6C56;}
	.st50{clip-path:url(#XMLID_12_);fill:#D38309;}
	.st51{fill:#FF6B6B;}
	.st52{clip-path:url(#XMLID_13_);fill:#D38309;}
	.st53{clip-path:url(#XMLID_14_);fill:#BC6C56;}
	
		.st54{clip-path:url(#XMLID_15_);fill:none;stroke:#282E5B;stroke-width:0.9297;stroke-linecap:round;stroke-linejoin:round;stroke-miterlimit:10;}
	.st55{clip-path:url(#XMLID_17_);fill:#BC6C56;}
	.st56{clip-path:url(#XMLID_18_);fill:#BC6C56;}
	.st57{opacity:0.5;}
	.st58{clip-path:url(#XMLID_19_);fill:#148A77;}
	.st59{clip-path:url(#XMLID_20_);fill:#BC6C56;}
	.st60{clip-path:url(#XMLID_21_);fill:#BC6C56;}
	.st61{fill:#12A189;}
	.st62{fill:none;stroke:#034C8A;stroke-width:3.0534;stroke-linecap:round;stroke-linejoin:round;stroke-miterlimit:10;}
	.st63{fill:#034C8A;stroke:#034C8A;stroke-width:1.0331;stroke-linecap:round;stroke-linejoin:round;stroke-miterlimit:10;}
	.st64{clip-path:url(#XMLID_22_);fill:#282E5B;}
	.st65{clip-path:url(#XMLID_23_);fill:#034C8A;}
	.st66{clip-path:url(#XMLID_23_);fill:none;stroke:#034C8A;stroke-width:0.9034;stroke-miterlimit:10;}
	.st67{clip-path:url(#XMLID_25_);fill:#BC6C56;}
	.st68{clip-path:url(#XMLID_26_);fill:#BC6C56;}
	.st69{opacity:0.5;clip-path:url(#XMLID_27_);fill:#BC6C56;}
	.st70{opacity:0.5;fill:#C4422B;}
	.st71{fill:#434E84;}
	.st72{fill:none;stroke:#434E84;stroke-width:4.287;stroke-linecap:round;stroke-linejoin:round;stroke-miterlimit:10;}
</style>
<g id="BACKGROUND">
	<g>
		<path class="st0" d="M583.6,438c13.2-14.6,27.4-35.4,25.2-59c-2.2-23.6-20.9-29.8-26.5-54.9c-8.7-38.9,15.4-55.7,17.3-91.1
			c3.4-63.4-67.4-138.1-135.4-146c-41.1-4.8-46.8,18.8-98.2,15.9c-63.3-3.5-74.5-40.4-119.5-35.8c-51.3,5.2-104.8,60.2-104.9,110.2
			c-0.1,51.5,56.7,74.6,45.1,114.1c-7.6,26.1-37,24.7-53.1,55.7c-15.3,29.4,9.1,74.7,21.9,90.9C304.3,438,434.7,438,583.6,438z"/>
		<circle class="st0" cx="147.8" cy="92.8" r="19.7"/>
		<circle class="st0" cx="155.5" cy="278.9" r="19.7"/>
		<circle class="st0" cx="194.3" cy="125.2" r="10.8"/>
		<circle class="st0" cx="604.7" cy="306.5" r="11.5"/>
		<circle class="st0" cx="601.3" cy="280.8" r="8.1"/>
		<circle class="st0" cx="136.4" cy="136" r="8.3"/>
		<circle class="st0" cx="358.2" cy="86.8" r="8.3"/>
		<circle class="st0" cx="530.9" cy="95" r="8.3"/>
		<g class="st1">
			<g>
				<path class="st2" d="M326.7,424.2c0.3-1.3,0.2-2.8,0-4.1c-0.3-1.3-0.8-2.5-1.5-3.6c-0.7-1.1-1.5-2-2.5-2.9
					c-0.5-0.4-1.1-0.8-1.6-1.1c-0.5-0.3-1.1-0.6-1.6-0.9c-2.2-1-4.3-1.4-6.1-1.7c-0.8-0.1-1.7-0.3-2.5-0.4c-0.8-0.1-1.7-0.2-2.5-0.3
					c-6.9-0.9-14.7-1.4-23.2-1.1c-14.4,0.5-33.4,3.2-33.4,6.4c0,3.2,18.6,6.4,33.4,7.1c8.5,0.4,16.2,0,23-0.9
					c1.7-0.2,3.4-0.4,4.8-0.7c1.4-0.2,2.7-0.4,3.8-0.3c0.6,0,1.1,0.1,1.6,0.3c0.5,0.2,1.1,0.4,1.5,0.7c0.9,0.6,1.7,1.6,1.9,2.8
					L326.7,424.2z"/>
				<path class="st3" d="M324.2,423.5c0-1.1-0.3-2.2-0.7-3.1c-0.4-0.9-1-1.7-1.7-2.3c-0.7-0.7-1.4-1.2-2.2-1.6
					c-0.8-0.4-1.6-0.7-2.4-0.9c-1.6-0.4-3.1-0.5-4.6-0.5l-4.3,0l-17-0.1l-34-0.2"/>
				<line class="st3" x1="272.3" y1="414.8" x2="268.8" y2="418"/>
				<line class="st3" x1="276.3" y1="414.8" x2="273.6" y2="410.6"/>
				<line class="st3" x1="285" y1="414.8" x2="282.5" y2="418.6"/>
				<line class="st3" x1="291.3" y1="414.9" x2="287.6" y2="410.4"/>
				<line class="st3" x1="298.4" y1="414.9" x2="294.7" y2="419.5"/>
				<line class="st3" x1="309.8" y1="415" x2="306.7" y2="411.9"/>
			</g>
			<g>
				<path class="st2" d="M360.8,438.9c-0.6-2.5-5.8-9-7.3-11.4c-1.6-2.6-3.5-4.7-5.4-6.5c-3.8-3.6-7.8-6.1-11.3-8.2
					c-3.2-1.9-6.6-3.9-10.2-5.8c-3.6-1.9-7.4-3.8-11.3-5.6c-2-0.9-4-1.8-6.1-2.7c-2.1-0.9-4.2-1.7-6.3-2.6c-2.2-0.9-4.3-1.7-6.6-2.5
					c-2.2-0.8-4.5-1.6-6.9-2.4c-9.3-3-19.3-5.6-29.9-7.6c-17.8-3.3-38.7-4.9-55.2-4c-16.5,0.8-28.3,3.7-28.6,7.5
					c-0.3,3.9,10.6,8.5,25.6,13.5c15,5,34.2,10.6,51.1,15.2c19.5,5.2,37.5,9.2,53.7,12.3c4.1,0.8,8,1.5,11.8,2.2
					c3.8,0.7,7.5,1.3,11,1.9c3.4,0.5,6.5,1.1,9.3,2.1c1.4,0.5,2.7,1.2,3.9,2c1.2,0.9,2.3,1.9,3.1,3.2L360.8,438.9z"/>
				<path class="st4" d="M350.3,436.3c-0.5-1.1-1-2.1-1.7-3.1c-0.3-0.5-0.7-0.9-1-1.4c-0.4-0.5-0.8-0.9-1.2-1.3
					c-1.6-1.7-3.4-3-5.1-4.1c-3.5-2.1-7-3.5-10.3-4.7c-6.6-2.4-13.2-4.7-19.8-6.9c-13.2-4.4-26.6-8.3-40.1-11.7
					c-26.9-6.8-54.2-11.6-81.5-14.5"/>
				<path class="st4" d="M225.6,393.6c-3.2,2.1-6.4,4.3-9.6,6.4"/>
				<path class="st4" d="M235.2,395.3c-1.5-3.8-3.1-7.6-4.7-11.3"/>
				<path class="st4" d="M256.2,399.6c-2.7,2.5-5.4,5.2-8,7.7"/>
				<path class="st4" d="M271.2,403.2c-2.1-4.2-4.2-8.5-6.4-12.8"/>
				<path class="st4" d="M287.8,407.7c-3.9,2.8-7.8,5.7-11.7,8.6"/>
				<path class="st4" d="M314.6,416c-1.6-3.2-3.3-6.4-5-9.6"/>
			</g>
			<g>
				<path class="st2" d="M442.1,435.6c9.9-4,21.8-8.9,35.4-14.6c13.6-5.7,28.8-12.1,45.5-19.5c14-6.2,30.6-13.2,44-19.1
					c13.3-5.8,23.4-10.7,22.8-14.2c-0.5-3.4-11.7-5.4-27-4.6c-1.9,0.1-3.9,0.2-5.9,0.4c-2,0.2-4.1,0.4-6.2,0.7
					c-4.2,0.5-8.6,1.3-13,2.1c-2.2,0.4-4.4,0.9-6.6,1.4c-2.2,0.5-4.4,1-6.6,1.6c-2.2,0.6-4.3,1.2-6.4,1.9c-1.1,0.3-2.1,0.6-3.1,1
					c-1,0.4-2.1,0.7-3.1,1.1c-2.3,0.8-4.6,1.7-6.9,2.5c-2.2,0.9-4.4,1.9-6.6,2.8c-1.1,0.5-2.1,1-3.2,1.4c-1,0.5-2.1,1-3.1,1.5
					c-2,1-4.1,2.1-6,3.1c-2,1.1-3.8,2.2-5.7,3.3c-1.9,1.1-3.7,2.2-5.4,3.3c-1.8,1.2-3.5,2.3-5.1,3.5c-0.8,0.6-1.7,1.2-2.5,1.7
					c-0.8,0.6-1.6,1.2-2.4,1.8c-12.5,9.4-22,19.2-28.9,27.6L442.1,435.6z"/>
				<path class="st5" d="M439.5,430.5c20-14.7,41.8-27.2,64.8-37.4c23-10.2,47.4-17.9,72.4-22.9"/>
				<path class="st5" d="M544.2,378.4c1.8-3,3.6-6.1,5.5-9.1"/>
				<polyline class="st5" points="535.7,381.1 540,384.6 544.2,388.2 				"/>
				<polyline class="st5" points="517.3,387.7 518.4,382.7 519.6,377.8 				"/>
				<path class="st5" d="M504.4,393.1c3.9,1.9,7.7,3.8,11.4,5.8"/>
				<path class="st5" d="M490.2,399.7c0.9-4.3,1.9-8.6,3-12.9"/>
				<path class="st5" d="M468.1,411.7c3.1,0.8,6.2,1.6,9.3,2.5"/>
			</g>
			<g>
				<path class="st2" d="M363.9,344.3c-8.6-15.1-23.8-41.6-38.9-61.2c-15-19.6-34.1-40.7-58.1-60.3c-2.5-2.1-5.2-4.1-7.8-6.1
					c-2.7-2-5.4-4.1-8.2-6.1c-2.8-2-5.7-4-8.6-5.9l-4.3-2.9c-1.5-0.9-3-1.8-4.4-2.8c-2.9-1.8-5.9-3.6-8.8-5.3
					c-2.9-1.7-5.9-3.3-8.8-4.9c-2.9-1.5-5.8-3.1-8.6-4.4c-2.9-1.3-5.7-2.6-8.4-3.8c-1.4-0.6-2.7-1.2-4-1.7c-0.7-0.3-1.3-0.6-2-0.8
					c-0.7-0.2-1.3-0.5-2-0.7c-2.6-1-5.1-1.8-7.5-2.6c-2.4-0.8-4.6-1.5-6.7-2c-2.2-0.5-4.2-0.9-6-1.3c-7.4-1.3-12.3-0.9-13.6,1.6
					c-1.3,2.4,0.8,6.9,5.3,12.4c1.1,1.4,2.4,2.8,3.8,4.4c1.4,1.6,2.9,3.3,4.5,5c1.6,1.7,3.4,3.5,5.2,5.3c1.8,1.9,3.7,3.8,5.7,5.8
					c2,2,4,4,6.2,6c2.1,2.1,4.2,4.2,6.4,6.4c4.5,4.2,8.9,8.9,13.7,13.3l1.8,1.7l1.7,1.7l3.5,3.4c2.3,2.3,4.7,4.5,7.1,6.8
					c2.3,2.3,4.7,4.6,7,6.8c1.2,1.1,2.3,2.2,3.5,3.3c1.1,1.1,2.3,2.2,3.4,3.3c2.6,2.5,5.2,4.9,7.8,7.3c2.6,2.4,5.1,4.8,7.7,7.2
					c1.3,1.2,2.6,2.3,3.8,3.5c1.3,1.2,2.5,2.3,3.8,3.5c2.5,2.3,5,4.5,7.6,6.7c5,4.4,9.9,8.6,14.8,12.7c4.8,4.1,9.7,7.9,14.4,11.7
					c18.8,14.9,36.2,26.9,50.8,36.2L363.9,344.3z"/>
				<path class="st6" d="M358,343.2c-27.3-29.1-60.5-60.3-89.8-87.5c-14.6-13.6-29.7-26.6-45.3-38.8c-15.6-12.2-31.8-23.5-48.6-33.6
					"/>
				<path class="st6" d="M217.1,212.5c-5.5,0.6-10.9,1.1-16.4,1.9"/>
				<path class="st6" d="M228.2,221.1l0.9-8.8c0.3-2.9,0.5-5.9,0.7-8.8"/>
				<polyline class="st6" points="251.7,240.8 244,242.9 236.3,245.1 				"/>
				<path class="st6" d="M268.2,255.7c0.3-6.8,0.6-13.7,0.7-20.5"/>
				<path class="st6" d="M286.2,272.8c-6.9,0.9-13.8,1.9-20.7,2.9"/>
				<path class="st6" d="M314.6,301.3c0-5.2,0.1-10.4,0-15.5"/>
			</g>
			<g>
				<path class="st2" d="M415.9,340c-2-20.7-5.8-46.1-13.3-74.5c-3.7-14.2-8.4-29.1-14.3-44.5c-2.9-7.7-6.1-15.5-9.7-23.5
					c-1.7-4-3.7-8-5.6-12c-2-4-4.1-8.1-6.2-12.2c-7.4-13.7-16.4-28.2-26.7-41.4c-10.3-13.3-21.8-25.3-33.1-34.2
					c-2.7-2.3-5.6-4.3-8.3-6.2c-1.4-0.9-2.7-1.9-4-2.7c-1.4-0.8-2.7-1.6-4-2.4c-1.3-0.7-2.6-1.5-3.8-2.1c-0.6-0.3-1.2-0.7-1.8-1
					c-0.6-0.3-1.2-0.6-1.8-0.8c-2.4-1.1-4.7-2-6.7-2.8c-2-0.8-4-1.3-5.8-1.6c-1.8-0.3-3.3-0.5-4.7-0.5c-2.7,0-4.6,0.6-5.6,2
					c-0.9,1.3-1,3.4-0.3,5.9c0.3,1.3,0.9,2.6,1.6,4.1c0.3,0.7,0.7,1.5,1.1,2.3c0.4,0.8,0.8,1.7,1.3,2.6c0.9,1.8,2,3.6,3.2,5.6
					c1.1,2,2.3,4.2,3.7,6.4c1.4,2.2,2.7,4.6,4.1,7c0.7,1.2,1.5,2.4,2.2,3.7c0.7,1.3,1.5,2.6,2.2,4c6.1,10.7,12.5,23.1,18.8,36.4
					c6.3,13.2,12.4,27.3,18.3,40.8c1.7,3.9,3.4,7.7,5.1,11.5c1.7,3.8,3.4,7.6,5.1,11.3c3.4,7.5,6.9,14.8,10.3,21.8
					c6.9,14.1,13.9,27.4,20.7,39.7c13.7,24.7,26.8,45.7,38,62.7L415.9,340z"/>
				<path class="st7" d="M405.4,341.7c-15.4-44.8-32.8-88.8-52.1-131.8c-9.6-21.5-20.1-42.6-32.3-62.4c-6.1-9.9-12.7-19.4-19.9-28.3
					l-2.7-3.3l-1.3-1.7c-0.5-0.5-0.9-1.1-1.4-1.6l-5.7-6.4l-5.9-6.1c-1-1-2-2-3-2.9l-3.1-2.9"/>
				<path class="st7" d="M316.4,140.4c-3.1-0.8-6.3-1.5-9.5-2.1c-3.2-0.6-6.2-1.3-9.4-1.8"/>
				<path class="st7" d="M325.1,154.4c3.1-6.2,6.2-12.5,9-18.9"/>
				<path class="st7" d="M342.1,186.2c-6.2-0.8-12.5-1.5-18.7-2.2"/>
				<path class="st7" d="M353.2,209.9c3.5-7.3,6.8-14.6,10.1-22.1"/>
				<path class="st7" d="M365,236.7c-7.9-2.2-15.9-4.3-23.8-6.3"/>
				<path class="st7" d="M383,280.7c2.4-5.6,4.8-11.2,7.1-16.9"/>
			</g>
			<g>
				<path class="st2" d="M390.8,437.4c-7.8-10-28.1-33.5-40.3-46.3c-12.2-12.8-26.7-26.6-43.9-40.2c-28.9-22.9-70.5-49.7-75.9-43.5
					c-5.3,6.1,25.4,43.9,53.5,70c16.1,14.9,32.2,26.9,47.3,36.3c15,9.5,28.6,19.5,40.1,24.6L390.8,437.4z"/>
				<path class="st8" d="M381.9,435.6c-45.7-36-96.3-79.7-140.3-118.1"/>
				<line class="st8" x1="270.7" y1="342.8" x2="258.5" y2="343.2"/>
				<line class="st8" x1="278.5" y1="349.5" x2="280.3" y2="336.7"/>
				<line class="st8" x1="295.6" y1="364.2" x2="284.3" y2="367.4"/>
				<line class="st8" x1="307.9" y1="374.7" x2="308" y2="359.8"/>
				<line class="st8" x1="321.8" y1="386.4" x2="306.8" y2="389.4"/>
				<line class="st8" x1="344.3" y1="405.1" x2="343.2" y2="393.9"/>
			</g>
			<g>
				<path class="st2" d="M406.7,439.7c9.6-11.5,21.1-25.6,33.8-42.1c12.7-16.4,26.7-35,41.4-56.1c12.3-17.7,26.8-38.6,38-55.7
					c11.2-17.1,18.9-30.6,15.5-34.2c-3.3-3.5-17.6,2.9-34.8,15.4c-2.1,1.6-4.4,3.2-6.6,4.9c-2.2,1.7-4.4,3.6-6.7,5.4
					c-4.6,3.7-9.1,7.8-13.6,12.1c-2.3,2.1-4.5,4.3-6.7,6.5c-2.2,2.2-4.4,4.4-6.5,6.7c-2.1,2.3-4.2,4.6-6.2,6.9c-1,1.1-2,2.3-3,3.4
					c-1,1.2-1.9,2.3-2.9,3.5c-2.2,2.6-4.3,5.3-6.3,7.9c-2,2.7-3.9,5.3-5.8,8c-0.9,1.3-1.9,2.6-2.8,4c-0.9,1.3-1.8,2.7-2.6,4
					c-1.7,2.7-3.4,5.3-5,7.9c-1.6,2.6-3.1,5.3-4.5,7.9c-1.4,2.6-2.9,5.2-4.2,7.8c-1.3,2.6-2.6,5.2-3.8,7.7c-0.6,1.3-1.2,2.5-1.8,3.8
					c-0.6,1.3-1.1,2.5-1.7,3.8c-8.7,20-15.1,44.5-18.1,59.4L406.7,439.7z"/>
				<path class="st9" d="M398,438.4c15.1-31.3,35.2-64.7,55.6-93.4c20.4-28.7,43.2-55.8,68.4-80.9"/>
				<path class="st9" d="M490.2,298.3c-0.2-4.9-0.3-9.9-0.3-14.8"/>
				<polyline class="st9" points="482.1,307.8 489.8,308.8 497.5,309.9 				"/>
				<polyline class="st9" points="465.2,329.2 462.9,322.4 460.7,315.7 				"/>
				<path class="st9" d="M453.6,345c6-0.5,11.9-1,17.9-1.2"/>
				<path class="st9" d="M441.3,362.9c-1.9-5.8-3.7-11.7-5.5-17.6"/>
				<path class="st9" d="M422.7,392.8c4.4-1.1,8.7-2.3,13.1-3.3"/>
			</g>
		</g>
	</g>
</g>
<g id="OBJECTS">
	<g>
		<g>
			<path class="st10" d="M567.4,357.2c-0.1,0.1-0.2,0.1-0.3,0.2c-3.5,1.7-5.4,1.4-8.8-0.2c-3.2-1.5-6.2-3.2-8.8-5.5
				c-3.3-2.9-5.9-6.9-6.4-11.3c-0.1-1-0.1-2.1,0.5-2.9c0.8-1.1,2.4-1.3,3.7-0.8c1.3,0.5,2.3,1.5,3.3,2.4c0.4,0.4,0.9,0.8,1.4,0.9
				c0.6,0.2,1.2,0,1.5-0.5c0.5-0.8-0.3-1.7-1-2.3c-1.6-1.4-3.2-2.2-4.9-3.4c-2.2-1.5-4.2-3.4-5.4-5.7c-1.2-2.4-1.5-5.3-0.2-7.6
				c0.4-0.7,0.9-1.4,1.6-1.8c1.2-0.8,2.8-0.7,4.1-0.4c1.4,0.3,2.7,0.8,4.2,1c3.4,0.3,4.7-2,4.6-5.1c0-2.1-0.7-4.1-0.8-6.1
				c-0.2-3.6,1.6-7.5,4.9-9.1c3.3-1.6,7.9-0.1,9.1,3.4c1.3,3.7-1.6,8,0.3,11.5c0.6,1.2,2.1,2.8,3.2,3.5c1.8,1.1,4.5-0.2,6.6-0.1
				c0.5,0,1,0.1,1.3,0.4c0.2,0.3,0.3,0.6,0.4,1c0.5,2.6-0.4,5.4-2.4,7.2c-2.2,2-6.1,3-7,6.2c-0.6,2-0.3,6.9,2.8,6.4
				c1.2-0.2,2-1.3,3.1-1.7c1.4-0.5,3,0.5,3.6,1.8c0.6,1.3,0.4,2.9-0.1,4.3c-0.9,2.2-2.5,3.9-4.1,5.5
				C573.9,351.8,571.8,355,567.4,357.2z"/>
			<line class="st11" x1="562.7" y1="311.6" x2="562.7" y2="439.1"/>
			<polyline class="st11" points="571.6,324.8 562.7,333.6 553.9,324.8 			"/>
			<polyline class="st11" points="571.6,342.6 562.7,351.4 553.9,342.6 			"/>
		</g>
		<g>
			<path class="st12" d="M581.2,411.1c-0.1,0-0.2,0.1-0.3,0.1c-3.1,1.5-4.8,1.3-7.9-0.2c-2.8-1.3-5.6-2.9-7.9-4.9
				c-3-2.6-5.3-6.2-5.7-10.1c-0.1-0.9-0.1-1.8,0.4-2.6c0.7-1,2.2-1.1,3.3-0.7c1.1,0.4,2,1.3,2.9,2.1c0.4,0.3,0.8,0.7,1.3,0.8
				c0.5,0.1,1.1,0,1.4-0.5c0.4-0.7-0.3-1.5-0.9-2.1c-1.5-1.2-2.9-1.9-4.4-3c-1.9-1.4-3.7-3-4.8-5.2c-1.1-2.1-1.3-4.7-0.2-6.8
				c0.3-0.6,0.8-1.2,1.4-1.6c1.1-0.7,2.5-0.6,3.7-0.4c1.3,0.3,2.5,0.7,3.7,0.9c3,0.3,4.2-1.8,4.1-4.6c0-1.9-0.6-3.7-0.7-5.5
				c-0.2-3.3,1.4-6.7,4.4-8.1c3-1.4,7.1-0.1,8.1,3c1.1,3.4-1.5,7.1,0.3,10.3c0.6,1,1.8,2.5,2.8,3.1c1.6,1,4-0.2,5.9-0.1
				c0.4,0,0.9,0.1,1.2,0.4c0.2,0.2,0.3,0.5,0.4,0.9c0.5,2.3-0.4,4.9-2.2,6.5c-2,1.8-5.4,2.7-6.3,5.6c-0.5,1.8-0.3,6.1,2.5,5.7
				c1.1-0.2,1.8-1.2,2.8-1.5c1.2-0.4,2.7,0.4,3.2,1.6c0.6,1.2,0.4,2.6-0.1,3.8c-0.8,1.9-2.2,3.5-3.7,5
				C587.1,406.2,585.1,409.1,581.2,411.1z"/>
			<line class="st11" x1="577" y1="370.2" x2="577" y2="438.3"/>
			<polyline class="st11" points="585,382 577,389.9 569.1,382 			"/>
			<polyline class="st11" points="585,397.9 577,405.9 569.1,397.9 			"/>
		</g>
		<g>
			<path class="st13" d="M126.3,424.9c-0.1,0.1-0.3,0.1-0.4,0.2c-4.2,2-6.4,1.7-10.5-0.2c-3.8-1.7-7.4-3.8-10.5-6.5
				c-3.9-3.5-7-8.2-7.6-13.4c-0.1-1.2-0.1-2.5,0.6-3.4c1-1.3,2.9-1.5,4.4-0.9c1.5,0.6,2.7,1.8,3.9,2.8c0.5,0.5,1.1,0.9,1.7,1.1
				c0.7,0.2,1.5,0,1.8-0.6c0.5-1-0.4-2.1-1.2-2.8c-2-1.6-3.8-2.6-5.8-4c-2.6-1.8-5-4-6.4-6.8c-1.4-2.8-1.7-6.3-0.3-9.1
				c0.4-0.8,1.1-1.6,1.9-2.1c1.4-0.9,3.3-0.9,4.9-0.5c1.7,0.4,3.3,1,5,1.2c4,0.4,5.6-2.4,5.5-6.1c-0.1-2.5-0.9-4.9-1-7.3
				c-0.3-4.3,1.9-9,5.8-10.8c3.9-1.9,9.4-0.1,10.8,4c1.5,4.5-2,9.5,0.3,13.8c0.8,1.4,2.5,3.3,3.8,4.1c2.2,1.4,5.3-0.2,7.9-0.1
				c0.6,0,1.2,0.1,1.6,0.5c0.3,0.3,0.4,0.7,0.5,1.1c0.6,3.1-0.5,6.5-2.9,8.6c-2.6,2.4-7.2,3.6-8.3,7.4c-0.7,2.3-0.4,8.2,3.3,7.6
				c1.4-0.2,2.3-1.6,3.7-2.1c1.7-0.6,3.6,0.5,4.3,2.1c0.7,1.6,0.5,3.5-0.1,5.1c-1,2.6-3,4.6-4.9,6.6
				C134.1,418.5,131.5,422.4,126.3,424.9z"/>
			<line class="st14" x1="120.8" y1="370.6" x2="120.8" y2="439.3"/>
			<polyline class="st14" points="131.3,386.3 120.8,396.8 110.2,386.3 			"/>
			<polyline class="st14" points="131.3,407.5 120.8,418 110.2,407.5 			"/>
		</g>
		<g>
			<g>
				<path class="st12" d="M637.8,393.6c-2.3-1.6-5.2-3.2-8.9-4.5c-3.6-1.4-7.9-2.5-12.9-3.4c-8.3-1.6-20.3-2.4-20.3-4.2
					c0-0.8,2.9-1.8,7-2.5c4.1-0.7,9.6-1,14.5-0.4c5.6,0.7,10.6,2.6,14.4,5c3.8,2.5,6.4,5.5,7.9,8.1L637.8,393.6z"/>
				<path class="st15" d="M638.7,392.6c-4.6-5-11.2-8.1-18-9.6c-6.9-1.6-14.1-1.7-21.2-1.5"/>
				<line class="st15" x1="608.8" y1="381.5" x2="606.7" y2="379.7"/>
				<path class="st15" d="M611.4,381.6c-0.6,0.7-1.3,1.4-1.9,2.1"/>
				<path class="st15" d="M616.8,382.2c-0.4-0.7-0.8-1.5-1.3-2.2"/>
				<path class="st15" d="M620.7,382.9c-1,0.6-1.9,1.2-2.8,1.8"/>
				<path class="st15" d="M624.9,384.1c-0.4-1-0.9-2-1.5-3"/>
				<path class="st15" d="M631.3,386.9c-0.8,0.2-1.6,0.4-2.4,0.6"/>
			</g>
			<g>
				<path class="st12" d="M642.5,394.5c-2.1-1.4-4.1-3.3-6.1-5.4c-1.9-2.1-3.8-4.4-5.6-6.7c-1.9-2.3-3.7-4.4-5.9-6.5
					c-2.2-2.1-4.8-4.2-7.6-6.2c-4.8-3.5-11-7-16.2-9.7c-5.1-2.7-9-4.9-8.6-6.1c0.3-1.1,4.8-1.3,10.9-0.2c3,0.6,6.5,1.4,9.9,2.7
					c3.5,1.3,6.9,2.9,10,4.9c3.5,2.2,6.6,4.8,9.1,7.7c2.5,2.8,4.5,5.9,5.9,8.7c1.4,2.8,2.5,5.4,3.5,7.7c1.1,2.3,2.1,4.4,3.3,6.3
					L642.5,394.5z"/>
				<path class="st16" d="M643.6,392.9c-3.8-3.9-6.3-8.4-9-12.6c-0.7-1.1-1.4-2.1-2.1-3.1c-0.7-1-1.5-2-2.3-2.9
					c-1.7-1.9-3.4-3.7-5.4-5.3c-3.9-3.2-8.3-5.9-12.9-8.2c-4.6-2.2-9.4-4-14.4-5.5"/>
				<path class="st16" d="M610.2,360c-0.6-1.2-1.2-2.3-1.9-3.5"/>
				<path class="st16" d="M613.5,361.6c-1.2,0.6-2.4,1.2-3.6,1.8"/>
				<path class="st16" d="M620.3,365.6c-0.1-1.2-0.2-2.4-0.3-3.6"/>
				<path class="st16" d="M624.8,369c-1.6,0.1-3.2,0.4-4.7,0.6"/>
				<path class="st16" d="M629.3,373.3c0.2-1.6,0.2-3.2,0.2-4.8"/>
				<path class="st16" d="M635.3,381.4c-1.2-0.4-2.3-0.7-3.5-1.1"/>
			</g>
			<g>
				<path class="st12" d="M640.1,391.2c-1-6.2-2.3-15-3.1-25.7c-0.3-4.5-0.7-9.8-0.9-14c-0.2-4.2-0.1-7.3,0.8-7.5
					c0.8-0.2,2.4,2.6,3.9,6.7c1.5,4.1,2.8,9.4,3.5,14.2c1.6,11.1,0.1,20.3-1.5,26.2L640.1,391.2z"/>
				<path class="st17" d="M641.5,391.1c0.6-14.4-0.6-29-3.7-43.3"/>
				<line class="st17" x1="639.6" y1="357.2" x2="641" y2="354.7"/>
				<path class="st17" d="M640,359.8c-0.8-0.5-1.7-1-2.5-1.4"/>
				<line class="st17" x1="640.6" y1="365.3" x2="642.5" y2="363.5"/>
				<path class="st17" d="M641,369.4c-0.9-0.7-1.7-1.5-2.6-2.2"/>
				<line class="st17" x1="641.4" y1="373.9" x2="643.7" y2="371.4"/>
				<line class="st17" x1="641.6" y1="381.1" x2="639.9" y2="379.2"/>
			</g>
			<g>
				<path class="st12" d="M643.3,393.1c0.3-6.5,1.4-15.9,4.9-26.7c2.9-9,8.1-20.5,9.8-19.9c1.7,0.6-0.3,12.8-2.6,22.2
					c-2.7,10.8-6.5,19.3-9.4,24.9L643.3,393.1z"/>
				<path class="st18" d="M644.7,393.2c3.8-14.5,7.9-28.8,12.3-43.1"/>
				<line class="st18" x1="654.1" y1="359.5" x2="656.5" y2="357.9"/>
				<line class="st18" x1="653.4" y1="362.1" x2="651.6" y2="359.6"/>
				<line class="st18" x1="651.8" y1="367.6" x2="654.3" y2="366.6"/>
				<line class="st18" x1="650.6" y1="371.6" x2="648.9" y2="368.5"/>
				<line class="st18" x1="649.4" y1="376" x2="652.5" y2="374.5"/>
				<line class="st18" x1="647.4" y1="383.3" x2="646.3" y2="380.8"/>
			</g>
			<g>
				<path class="st12" d="M637.5,397.7c1.7-3.3,4.9-6.8,8.9-9.7c3.9-2.9,8.9-5.6,14.6-7.4c2.4-0.8,5.1-1.4,7.7-1.8
					c2.6-0.4,5.2-0.5,7.4-0.6c2.2-0.1,4-0.2,5.4-0.4c1.4-0.2,2.3-0.4,2.6,0c0.2,0.4-0.3,1.3-1.5,2.4c-1.3,1.1-3.3,2.1-5.5,2.9
					c-2.2,0.8-4.5,1.5-6.8,2.3c-2.3,0.8-4.7,1.7-6.9,2.5c-5,2-9.6,3.9-13.6,5.7c-4,1.8-7.4,3.6-9.9,5.7L637.5,397.7z"/>
				<path class="st19" d="M638.8,398.4c2.5-3.2,5.8-5.5,9.1-7.5c3.3-2,6.7-3.7,10.2-5.1c3.5-1.5,7.1-2.6,10.8-3.5
					c1.8-0.5,3.7-0.8,5.5-1.1c1.9-0.3,3.8-0.6,5.7-1.3"/>
				<path class="st19" d="M670.3,381.9c0.9,0.4,1.7,0.9,2.6,1.3"/>
				<path class="st19" d="M667.7,382.5c0.4-0.9,0.8-1.9,1.2-2.8"/>
				<path class="st19" d="M662.1,384.2c0.8,0.5,1.5,1,2.2,1.5"/>
				<path class="st19" d="M658.1,385.7c0.5-1.1,1-2.2,1.5-3.3"/>
				<path class="st19" d="M653.8,387.7c1.1,0.4,2.2,0.9,3.3,1.4"/>
				<path class="st19" d="M647.1,391.4c0.3-0.9,0.6-1.8,1-2.6"/>
			</g>
			<path class="st20" d="M641.4,439.3h-5.1c-8.9,0-16.2-7.3-16.2-16.2v-27.3c0-3.9,3.1-7,7-7H653c4.1,0,7.4,3.3,7.4,7.4v24.1
				C660.4,430.8,651.9,439.3,641.4,439.3z"/>
			<path class="st21" d="M626.6,426v-31.5c0-3.2,2.6-5.7,5.7-5.7h-6.6c-3.2,0-5.7,2.6-5.7,5.7V426c0,7.3,5.9,13.3,13.3,13.3h6.6
				C632.6,439.3,626.6,433.4,626.6,426z"/>
			<path class="st20" d="M661.4,396.2h-43.2c-1.7,0-3-1.3-3-3V390c0-1.7,1.3-3,3-3h43.2c1.7,0,3,1.3,3,3v3.2
				C664.4,394.8,663,396.2,661.4,396.2z"/>
		</g>
		<g>
			<path class="st22" d="M539.8,289.2H411.4c-4.6,0-8.3-3.7-8.3-8.3v-87.7c0-4.6,3.7-8.3,8.3-8.3h128.4c4.6,0,8.3,3.7,8.3,8.3v87.7
				C548,285.5,544.3,289.2,539.8,289.2z"/>
			<path class="st23" d="M536.4,286.9H414.7c-4.6,0-8.3-3.7-8.3-8.3v-83.1c0-4.6,3.7-8.3,8.3-8.3h121.7c4.6,0,8.3,3.7,8.3,8.3v83.1
				C544.7,283.2,541,286.9,536.4,286.9z"/>
			<g>
				<line class="st24" x1="466.7" y1="260.9" x2="494" y2="260.9"/>
				<line class="st24" x1="466.7" y1="264.9" x2="494" y2="264.9"/>
				<line class="st24" x1="466.7" y1="268.9" x2="494" y2="268.9"/>
				<line class="st24" x1="466.7" y1="272.8" x2="494" y2="272.8"/>
				<line class="st24" x1="466.7" y1="276.8" x2="477.3" y2="276.8"/>
			</g>
			<g>
				<line class="st25" x1="443.8" y1="206.5" x2="482.9" y2="206.5"/>
				<line class="st25" x1="443.8" y1="212.1" x2="482.9" y2="212.1"/>
				<line class="st25" x1="443.8" y1="217.8" x2="482.9" y2="217.8"/>
				<line class="st25" x1="443.8" y1="223.5" x2="482.9" y2="223.5"/>
				<line class="st25" x1="443.8" y1="229.2" x2="458.9" y2="229.2"/>
			</g>
			<g>
				<path class="st26" d="M501,219.3h3.7c0.1-0.3,0.1-0.7,0.1-1.1v-8.2h-9.6v13.2h4.5c0.4,0,0.8-0.1,1.2-0.2V219.3z"/>
				<path class="st27" d="M501,223.1c1.8-0.5,3.3-1.9,3.7-3.8H501V223.1z"/>
			</g>
			<g>
				<path class="st28" d="M517.7,256.8h7.9c0.2-0.7,0.3-1.5,0.3-2.3V237h-20.5v28.3h9.8c0.9,0,1.8-0.1,2.7-0.3V256.8z"/>
				<path class="st29" d="M517.7,265c3.9-1,7-4.1,7.9-8.1h-7.9V265z"/>
			</g>
			<g>
				<path class="st28" d="M523.7,215.8h7.9c0.2-0.7,0.3-1.5,0.3-2.3v-17.5h-20.5v28.3h9.8c0.9,0,1.8-0.1,2.7-0.3V215.8z"/>
				<path class="st29" d="M523.7,223.9c3.9-1,7-4.1,7.9-8.1h-7.9V223.9z"/>
			</g>
		</g>
		<g>
			<g>
				<path class="st30" d="M641.8,189.2H586l-15,9.7v-41.3c0-8.3,7.7-15,17.3-15h53.6c9.5,0,17.3,6.7,17.3,15v16.6
					C659.1,182.4,651.4,189.2,641.8,189.2z"/>
				<path class="st31" d="M640.4,159h-51.9c-0.8,0-1.4-0.6-1.4-1.4v-2.3c0-0.8,0.6-1.4,1.4-1.4h51.9c0.8,0,1.4,0.6,1.4,1.4v2.3
					C641.8,158.4,641.2,159,640.4,159z"/>
				<path class="st31" d="M640.4,168.3h-51.9c-0.8,0-1.4-0.6-1.4-1.4v-2.3c0-0.8,0.6-1.4,1.4-1.4h51.9c0.8,0,1.4,0.6,1.4,1.4v2.3
					C641.8,167.7,641.2,168.3,640.4,168.3z"/>
				<path class="st31" d="M618.6,177.6h-30.1c-0.8,0-1.4-0.6-1.4-1.4v-2.3c0-0.8,0.6-1.4,1.4-1.4h30.1c0.8,0,1.4,0.6,1.4,1.4v2.3
					C620,177,619.4,177.6,618.6,177.6z"/>
			</g>
			<g>
				<path class="st30" d="M188,205.5H219l16.9,11v-46.6c0-9.4-8.7-16.9-19.4-16.9H188c-10.7,0-19.4,7.6-19.4,16.9v18.7
					C168.6,197.9,177.3,205.5,188,205.5z"/>
				<path class="st23" d="M202.1,195.3c-2.5,0-4.2-1.9-4.2-4.4c0-2.6,1.8-4.4,4.3-4.4c2.5,0,4.2,1.8,4.3,4.4
					C206.5,193.4,204.8,195.3,202.1,195.3L202.1,195.3z M199.5,184.2l-1.1-21.7h7.6l-1.1,21.7H199.5z"/>
			</g>
			<g>
				<path class="st2" d="M452.5,171.2h-30.9l-16.9,11v-46.6c0-9.4,8.7-16.9,19.4-16.9h28.4c10.7,0,19.4,7.6,19.4,16.9v18.7
					C471.9,163.6,463.2,171.2,452.5,171.2z"/>
				<path class="st23" d="M423,160.5c0-0.1,0-0.2,0-0.2c0.9-1.8-0.6-2.7-1.5-3.9c-0.1-0.2-0.4-0.2-0.6-0.2c-0.3,0-0.6,0.1-0.9,0.1
					c-1.1,0.1-1.1,0.1-1.6-0.9c-0.4-0.8-0.6-1.6-0.8-2.5c-0.1-0.4-0.1-0.7,0.3-0.9c1.4-0.5,1.6-1.6,1.6-2.9c0-0.9-0.2-1.4-0.9-1.8
					c-0.2-0.1-0.4-0.3-0.6-0.5c-0.3-0.2-0.3-0.4-0.2-0.7c0.4-1.1,0.8-2.2,1.5-3.1c0.2-0.3,0.4-0.4,0.7-0.3c1.4,0.6,2.4,0,3.4-1
					c0.5-0.5,0.7-0.9,0.6-1.6c-0.2-1.4-0.2-1.4,1.2-2c0.7-0.3,1.4-0.5,2.2-0.7c0.4-0.1,0.7,0,0.8,0.3c0.5,1.1,1.3,1.6,2.7,1.6
					c1,0,1.7-0.1,2.2-1c0.6-0.9,0.7-0.8,1.7-0.5c0.8,0.3,1.5,0.7,2.3,1.1c0.5,0.3,0.7,0.6,0.5,1c-0.4,1.1-0.1,1.9,0.7,2.8
					c0.8,0.9,1.5,1.2,2.6,0.9c0.6-0.2,0.9,0.1,1.1,0.6c0.4,0.9,0.8,1.9,1,2.9c0.1,0.4,0.1,0.6-0.3,0.8c-1.4,0.5-1.7,1.6-1.7,3
					c0,0.8,0.1,1.3,0.8,1.7c0.2,0.1,0.4,0.3,0.6,0.5c0.3,0.2,0.4,0.4,0.2,0.7c-0.4,1.1-0.8,2.1-1.4,3.1c-0.2,0.3-0.5,0.4-0.8,0.3
					c-1.3-0.5-2.2,0-3.2,0.9c-0.9,0.8-0.8,1.5-0.7,2.4c0.1,0.6-0.1,0.9-0.6,1.1c-0.9,0.4-1.9,0.8-2.9,1c-0.4,0.1-0.7,0.1-0.8-0.3
					c-0.6-1.4-1.6-1.6-3-1.7c-1.1-0.1-1.4,0.5-1.9,1.1c-0.6,0.8-0.6,0.8-1.5,0.4c-0.9-0.3-1.8-0.7-2.6-1.2
					C423.2,160.9,422.9,160.8,423,160.5z M430.3,143.7c-3.6,0-6.4,2.8-6.4,6.4c0,3.6,2.8,6.4,6.4,6.4c3.6,0,6.4-2.8,6.4-6.4
					C436.7,146.5,434,143.7,430.3,143.7z"/>
				<path class="st23" d="M443.9,145.2c0-0.1,0-0.1,0-0.1c0.7-1.4-0.4-2-1.1-2.9c-0.1-0.1-0.3-0.1-0.4-0.1c-0.2,0-0.4,0.1-0.6,0.1
					c-0.8,0.1-0.9,0.1-1.2-0.7c-0.3-0.6-0.5-1.2-0.6-1.8c-0.1-0.3,0-0.5,0.2-0.7c1-0.4,1.2-1.2,1.2-2.2c0-0.7-0.1-1-0.7-1.4
					c-0.2-0.1-0.3-0.2-0.4-0.3c-0.2-0.1-0.2-0.3-0.2-0.5c0.3-0.8,0.6-1.6,1.1-2.4c0.1-0.2,0.3-0.3,0.5-0.2c1.1,0.4,1.8,0,2.5-0.8
					c0.4-0.4,0.6-0.7,0.5-1.2c-0.2-1.1-0.1-1.1,0.9-1.5c0.5-0.2,1.1-0.4,1.6-0.5c0.3-0.1,0.5,0,0.6,0.2c0.4,0.9,1,1.2,2,1.2
					c0.7,0,1.2-0.1,1.7-0.7c0.4-0.7,0.5-0.6,1.3-0.3c0.6,0.2,1.2,0.5,1.7,0.8c0.3,0.2,0.5,0.4,0.4,0.8c-0.3,0.8-0.1,1.4,0.5,2.1
					c0.6,0.7,1.1,0.9,1.9,0.7c0.5-0.1,0.7,0.1,0.9,0.5c0.3,0.7,0.6,1.4,0.8,2.1c0.1,0.3,0,0.5-0.2,0.6c-1.1,0.4-1.2,1.2-1.2,2.3
					c0,0.6,0.1,1,0.6,1.3c0.2,0.1,0.3,0.2,0.4,0.3c0.2,0.1,0.3,0.3,0.2,0.6c-0.3,0.8-0.6,1.6-1.1,2.3c-0.1,0.2-0.3,0.3-0.6,0.2
					c-1-0.4-1.6,0-2.4,0.7c-0.7,0.6-0.6,1.1-0.5,1.8c0.1,0.4-0.1,0.7-0.5,0.8c-0.7,0.3-1.4,0.6-2.1,0.8c-0.3,0.1-0.5,0-0.6-0.2
					c-0.4-1-1.2-1.2-2.2-1.2c-0.8,0-1.1,0.3-1.4,0.8c-0.5,0.6-0.5,0.6-1.2,0.3c-0.7-0.2-1.3-0.6-1.9-0.9
					C444,145.5,443.8,145.4,443.9,145.2z M449.4,132.6c-2.7,0-4.8,2.1-4.8,4.8c0,2.7,2.1,4.8,4.8,4.8c2.7,0,4.8-2.1,4.8-4.8
					C454.2,134.6,452.1,132.6,449.4,132.6z"/>
			</g>
			<g>
				<path class="st2" d="M350.3,223.2h-30.9l-16.9,11v-46.6c0-9.4,8.7-16.9,19.4-16.9h28.4c10.7,0,19.4,7.6,19.4,16.9v18.7
					C369.7,215.6,361,223.2,350.3,223.2z"/>
				<polygon class="st32" points="336.1,179.6 341.3,190.1 352.9,191.8 344.5,200 346.5,211.6 336.1,206.1 325.7,211.6 327.7,200 
					319.3,191.8 330.9,190.1 				"/>
			</g>
		</g>
		<g>
			<g>
				<g>
					<path class="st33" d="M254.4,272.8c0.8-0.9,1.2-1.9,1.3-3.2c0-0.9-0.1-1.9-0.6-2.7c-0.5-0.9-1.3-1.6-2.2-2.1
						c-0.9-0.5-1.9-0.6-3-0.5c-1.5,0.2-3,0.8-4.2,1.7c-0.8,0.6-1.4,1.5-1.8,2.5c-0.5,1.5-0.7,3.2-0.3,4.7c0.2,0.8,0.5,1.5,0.8,2.2
						c0.5,1,0.9,2,1.5,3c1,1.9,2.1,3.8,3.2,5.6c0.5,0.8,1,1.6,1.4,2.5c0.3,0.8,0.6,1.6,1,2.2c0.3,0.5,0.7,0.8,1.1,1.1
						c0.8,0.4,1.7,0.8,2.5,1.3c1.8,1.1,3.5,2.3,5.4,3.3c2,1,3.5,1.5,5.4,2.2c2.2,0.7,4.3,1.1,5.9,1.4c1.2,0.2,2.4,0.4,4,0.6
						c2,0.2,3.7,0.2,4.9,0.1c2.7-1.3,5.3-2.5,8-3.8c0.1-1.2,0.3-2.4,0.4-3.7c-0.9-1.2-1.7-2.4-2.6-3.6c-0.6-0.1-1.3-0.3-1.9-0.4
						c-2,1-4,2-6,2.9c-0.6,0.8-1.1,1.5-1.7,2.3c-0.9,0.1-1.9,0.1-2.8,0.2c-2.4-1.3-4.2-2.5-5.3-3.4c-1.7-1.3-2.8-2.3-4.9-3.6
						c-1.5-1-2.4-1.4-2.4-1.4c-0.8-0.4-1.7-0.8-2.5-1.4c-1-0.8-1.5-1.9-2-3.1c-0.4-1.1-0.8-2.1-1.2-3.2c-0.4-1-0.8-1.9-1.2-2.9
						c-0.6-1.5-1.5-3.4-2.6-5.6L254.4,272.8z"/>
					<path class="st34" d="M270.1,433.9c-1.2-0.5-2.7-0.3-4-0.4c-1.8-0.1-3.5-0.7-5.1-1.5c-1.7-0.8-3.3-1.9-4.8-3
						c-0.7-0.6-1.5-1.1-2.2-1.8c-0.2-0.2-0.5-0.5-0.8-0.6c-0.1,0-0.3,0-0.4-0.1c0.5-0.3,0.2-0.9,0.1-1.4c-0.3-1-0.7-2-1-3
						c-0.2-0.7-0.2-1.5-0.4-2.2c-0.2-1.1-1-2.1-0.9-3.3c0-0.3,0.1-0.6,0-0.8c-0.1-0.3-0.4-0.5-0.5-0.8c-0.1-0.5,0-1.1,0-1.6
						c0-1.2-0.1-2.3-0.1-3.5c-0.1-2.1-0.1-4.1-0.1-6.2c0.1-2,0.2-3.9,0.4-5.9c0.3-2.3,0.5-4.6,0.6-7c0-0.9,0.1-1.8,0.3-2.8
						c0.2-0.9,0.1-1.8,0.2-2.7c0-0.7,0.2-1.3,0.4-2c0.3-0.9,0.5-1.8,0.8-2.7c0.2-0.7,0.6-1.3,0.9-2c0.4-0.8,0.6-1.7,0.8-2.5
						c0.4-2.1,0.4-4.1,0.4-6.2c0.1-1.9,0.5-3.9,1-5.8c0.5-2.3,1.2-4.6,1.8-6.8c0.5-1.9,1-3.8,1.4-5.7c0.4-2,0.8-3.9,1.1-5.9
						c0.3-2.3,0.6-4.6,0.8-6.8c0.1-1,0.1-2.1,0.2-3.1c0.1-0.9,0.3-1.8,0.4-2.6c0.1-0.8-0.1-1.6-0.1-2.5c0-1,0.3-2,0.6-2.9
						c0.2-0.5,0.4-1,0.6-1.5c0.3-0.5,0.6-0.9,0.7-1.4c0.2-1,0.4-2,0.6-3c0.1-1,0.2-1.9,0.2-2.9l-24.3-7.3c-0.7,0.8-1.3,1.6-1.9,2.4
						c-1.3,1.8-2.5,3.6-3.3,5.6c-0.8,2-1.1,4.1-1,6.2c0.1,2.3,0.7,4.6,1.4,6.8c0.3,1.1,0.7,2.3,1.1,3.4c0.3,0.9,0.5,1.8,1,2.6
						c0.2,0.4,0.6,0.6,0.8,1c0.1,0.3,0.1,0.6,0.1,0.8c0,1.5,0.8,2.8,1,4.2c0.1,0.5-0.1,1-0.2,1.5c-0.1,0.5,0.1,1.1,0.2,1.6
						c0.1,0.9,0.1,1.9,0.1,2.9c0,1.3,0,2.5,0,3.8c0,2.3,0,4.7,0.1,7c0.1,1.4,0.1,2.9,0.2,4.3c0,0.9,0,1.9-0.2,2.8
						c-0.1,0.8-0.3,1.5-0.3,2.2c0,0.6,0,1.2-0.2,1.8c-0.2,0.7-0.4,1.5-0.4,2.3c0,0.6,0.2,1.1,0.3,1.6c0.1,0.7,0,1.3-0.1,2
						c0,1.1,0,2.2-0.1,3.3c-0.2,2.3-0.6,4.6-0.8,6.9c-0.2,2.4-0.4,4.7-0.4,7.1c0,2.3,0.2,4.7,0.6,7c0.3,2.3,0.8,4.6,1.1,7
						c0.3,2.6,0.4,5.2,0.6,7.8c0.1,2.2,0.5,4.4,0.7,6.6c0.1,1.2,0.1,2.4,0.2,3.6c0,0.6,0,1.2,0.3,1.8c-0.5,0.1-0.6,0.6-0.8,1
						c-0.6,1.8-0.7,3.8-0.9,5.6c-0.1,0.8-0.1,1.7,0,2.5c0,0.2,0.1,0.5,0.2,0.6c0.4,0.6,1.4,0.7,2,0.7c1.6,0.2,3.1,0.2,4.7,0.2
						c2.7,0,5.5,0,8.2,0c3.8,0,7.7,0.1,11.6-0.3c1.7-0.2,3.5-0.5,5.1-1.3c0.6-0.3,1.1-0.6,1.1-1.3
						C272,436.1,271.6,434.5,270.1,433.9z"/>
					<g>
						<defs>
							<path id="XMLID_63_" d="M260,231.2c0.1,0.5,0.2,1,0.3,1.5c0.2,1.1,0.2,2.2,0.2,3.3c0,1-0.3,2-0.2,3.1c0,0.6,0.4,1.1,0.7,1.7
								c0.4,0.8,1,1.7,1.3,2.6c0.1,0.5,0.2,1.1-0.3,1.3c-0.6,0.2-1.7-0.1-1.9,0.7c-0.1,0.4,0,0.9-0.1,1.3c-0.1,0.3-0.3,0.3-0.6,0.5
								c-0.2,0.2-0.3,0.4-0.3,0.6c0,0.5,0,1-0.2,1.4c-0.2,0.4-0.5,0.6-0.7,1c-0.2,0.3-0.2,0.7-0.2,1c0,1,0,2.2-1.2,2.4
								c-0.7,0.2-1.5,0-2.2-0.1c-0.9-0.1-1.9-0.3-2.8-0.2c-0.4,0.1-0.8,0.3-1.1,0.6c-0.5,0.6-1,1.3-1.2,2.1c0,0,0.6,4.1,1.4,5.8
								c0.8,1.7-2.5,2.4-2.5,2.4l-8.7-4l-3.1-4.8l2-5.3c0.3-0.8,0.5-1.7,0.6-2.6l0.4-17.4l11.7-4.2L260,231.2L260,231.2z"/>
						</defs>
						<use xlink:href="#XMLID_63_"  style="overflow:visible;fill:#D08B73;"/>
						<clipPath id="XMLID_2_">
							<use xlink:href="#XMLID_63_"  style="overflow:visible;"/>
						</clipPath>
						<path class="st35" d="M252.6,253.6c0,0-5.1-2.3-6.5-6.9c0.1,3.7,4.4,9.7,4.4,9.7L252.6,253.6z"/>
					</g>
					<path class="st26" d="M258.4,319.1c0,1-0.1,1.9-0.2,2.9c-0.1,1-0.3,2-0.6,3c-0.1,0.5-0.5,1-0.7,1.4c-0.2,0.5-0.5,1-0.6,1.5
						c-0.3,0.9-0.6,1.9-0.6,2.9c0,0.8,0.1,1.6,0.1,2.5c-0.1,0.9-0.3,1.7-0.4,2.6c-0.1,1-0.1,2.1-0.2,3.1c-0.2,2.3-0.5,4.6-0.8,6.8
						c-0.2,2-0.6,4-1.1,5.9c-0.4,1.9-0.9,3.8-1.4,5.7c-0.6,2.3-1.3,4.5-1.8,6.8c-0.4,1.9-0.9,3.9-1,5.8c-0.1,2.1,0,4.1-0.4,6.2
						c-0.2,0.9-0.4,1.7-0.8,2.5c-0.3,0.7-0.7,1.3-0.9,2c-0.3,0.9-0.5,1.8-0.8,2.7c-0.2,0.6-0.4,1.3-0.4,2c0,0.9,0,1.8-0.2,2.7
						c-0.2,0.9-0.2,1.8-0.3,2.8c-0.1,2.3-0.4,4.6-0.6,7c-0.2,1.9-0.4,3.9-0.4,5.9c-0.1,2.1,0,4.1,0.1,6.2c0,1.2,0.1,2.3,0.1,3.5
						c0,0.5-0.1,1.1,0,1.6c0.1,0.3,0.4,0.5,0.4,0.8c0.1,0.3,0,0.6,0,0.8c-0.1,1.2,0.7,2.2,0.9,3.3c0.1,0.7,0.2,1.5,0.4,2.2
						c0.3,1,0.6,2,1,3c0.1,0.5,0.4,1.1-0.1,1.4l-2.8,4.5c-1.9,0.9-9.5-1.3-9.5-1.3c-0.3-0.6-0.3-1.2-0.3-1.8
						c-0.1-1.2-0.1-2.4-0.2-3.6c-0.2-2.2-0.5-4.4-0.7-6.6c-0.2-2.6-0.3-5.2-0.6-7.8c-0.3-2.3-0.7-4.6-1.1-7c-0.3-2.3-0.6-4.6-0.6-7
						c0-2.4,0.2-4.8,0.4-7.1c0.2-2.3,0.6-4.6,0.8-6.9c0.1-1.1,0-2.2,0.1-3.3c0-0.7,0.2-1.3,0.1-2c-0.1-0.6-0.3-1.1-0.3-1.6
						c0-0.8,0.2-1.5,0.4-2.3c0.2-0.6,0.2-1.2,0.2-1.8c-0.1-0.8,0.1-1.5,0.3-2.2c0.2-0.9,0.2-1.9,0.2-2.8c0-1.4-0.1-2.9-0.2-4.3
						c-0.1-2.3-0.1-4.7-0.1-7c0-1.3,0-2.5,0-3.8c0-0.9,0-1.9-0.1-2.9c-0.1-0.5-0.2-1-0.2-1.6c0.1-0.5,0.2-0.9,0.2-1.5
						c-0.1-1.5-1-2.7-1-4.2c0-0.3,0-0.6-0.1-0.8c-0.2-0.4-0.6-0.6-0.8-1c-0.5-0.8-0.7-1.7-1-2.6c-0.4-1.1-0.7-2.3-1.1-3.4
						c-0.7-2.2-1.3-4.5-1.4-6.8c-0.1-2.1,0.3-4.3,1-6.2c0.8-2,2-3.9,3.3-5.6c0.6-0.8,1.2-1.7,1.9-2.4L258.4,319.1z"/>
					<g>
						<defs>
							<path id="XMLID_64_" d="M235.3,284.3c-1.4-3.2-2.4-6.7-2.7-10.2c-0.3-3.4,0-6.8,0.9-10.1c0.5-1.6,1.4-3,1.7-4.7l2.4-6.5
								c3.6,3.5,6.7,5.7,8.3,6.7c0.8,0.5,2.2,1.3,4.1,1.4c0.2,0,0.4,0,0.5,0l10.1,11.7c0.9,0.7,1.7,1.6,2.3,2.6
								c1,1.7,1.3,3.8,1.1,5.7c-0.1,1.2-0.3,2.4-0.4,3.6c-0.1,1.1,0,2.1,0.2,3.2c0.4,2.4,0.8,4.8,1.1,7.2c0.3,2.6,1.4,17.7,1.6,19.1
								c0.2,1.3,0.4,2.4,0.5,3.2c-3.2,1.9-5.8,2.5-7.6,2.6c-4,0.3-8.6-1-10.8,0c-0.2,0.1-1,0.4-1.5,0.2c-0.3-0.2-0.3-0.8-0.4-1.1
								c-0.1-0.6-0.2-1.2-0.3-1.8c0-0.2,0-0.4-0.1-0.6c-0.1-0.2-0.2-0.2-0.4-0.1c-0.3,0.1-2.1,2.1-2.4,2.3
								c-0.8,0.6-3.4-0.4-10.8-7.1c0.9-0.5,2-1.2,2.8-2.1c0.6-0.7,0.9-1,1-1.3c0.3-0.6,0.6-0.9,1.1-1.3c0.4-0.3,0.8-0.6,1.1-1
								c0.2-0.4,0.3-0.9,0.5-1.2c0.2-0.3,0.6-0.4,0.9-0.6c0.4-0.2,0.6-0.6,0.8-1L235.3,284.3z"/>
						</defs>
						<use xlink:href="#XMLID_64_"  style="overflow:visible;fill:#EE5F43;"/>
						<clipPath id="XMLID_3_">
							<use xlink:href="#XMLID_64_"  style="overflow:visible;"/>
						</clipPath>
						<path class="st36" d="M249.5,272.3c0,0-3.5,13.7-3.1,14.6c0.3,0.9,3.9,20.1,3.9,20.1l-11-22.7l6.3-12.3L249.5,272.3z"/>
					</g>
					<path class="st37" d="M234.8,429.7c-0.5,0.1-0.6,0.6-0.8,1c-0.6,1.8-0.7,3.8-0.9,5.6c-0.1,0.8-0.1,1.7,0,2.5
						c0,0.2,0.1,0.5,0.2,0.6c0.4,0.6,1.4,0.7,2,0.7c1.6,0.2,3.1,0.2,4.7,0.2c2.7,0,5.5,0,8.2,0c3.8,0,7.7,0.1,11.6-0.3
						c1.7-0.2,3.5-0.5,5.1-1.3c0.6-0.3,1.1-0.6,1.1-1.3c0.1-1.5-0.3-3-1.8-3.6c-1.2-0.5-2.7-0.3-4-0.4c-1.8-0.1-3.5-0.7-5.1-1.5
						c-1.7-0.8-3.3-1.9-4.8-3c-0.7-0.6-1.5-1.1-2.2-1.8c-0.2-0.2-0.5-0.5-0.8-0.6c-2-0.5-2.8,1.8-3.9,2.9c-0.7,0.7-1.7,1-2.7,1.1
						c-0.9,0.1-1.7,0.1-2.6-0.1c-0.9-0.2-1.7-0.5-2.6-0.7C235.4,429.7,235.1,429.7,234.8,429.7z"/>
					<path class="st38" d="M245.5,277.2c1.3-0.5,2.3-1.4,3-2.7c0.5-1,0.9-2.1,0.8-3.3c0-1.3-0.5-2.5-1.2-3.5
						c-0.7-1.1-1.7-1.8-2.8-2.3c-1.6-0.7-3.5-1-5.3-0.7c-1.2,0.2-2.3,0.8-3.2,1.7c-1.3,1.3-2.4,3.1-2.9,4.9
						c-0.2,0.9-0.3,1.9-0.3,2.8c0,1.4-0.1,2.7-0.1,4.1c0,2.7,0.2,5.4,0.4,8c0.1,1.2,0.1,2.4,0.1,3.6c-0.1,1-0.3,2-0.2,3
						c0.1,0.7,0.3,1.3,0.6,1.8c0.6,1,1.3,1.9,1.9,2.9c1.2,2.3,2.4,4.6,3.8,6.7c1.3,2,2.9,3.8,4.5,5.6c1.8,2,3.6,4,5.5,5.9
						c1.9,1.7,3.8,3.4,5.8,4.9c0.8,0.6,2.6,1.5,4.9,2c3.4,0.8,6.3,0.3,8.2-0.3c0.6-0.6,2.2-2.6,2.4-5.7c0.1-1.9-0.3-3.5-0.7-4.3
						c-1.7-0.2-3.6-0.8-5.6-1.9c-0.2-0.1-0.5-0.3-0.7-0.4c1.1-0.7,2.1-1.1,2.8-1.3c1-0.3,1.7-0.3,1.9-0.9c0.2-0.5-0.1-1.2-0.3-1.6
						c-0.6-0.8-1.9-1.1-3.2-0.7c-3.1,1.9-6.2,3.7-9.2,5.6c-0.1-0.1-0.3-0.3-0.6-0.5c-2-2-2.5-4-3.9-6.7c-1.2-2.4-2.3-4.8-3.6-7.2
						c-0.5-1-1.1-2-1.7-3c-0.6-1-1.3-1.9-1.8-3c-0.7-1.5-0.5-2.9-0.4-4.5c0.1-1.4,0.3-2.8,0.4-4.2c0.1-1.3,0.2-2.5,0.3-3.8
						c0.2-2.6,0.4-5.1,0.3-7.7L245.5,277.2z"/>
					<path class="st34" d="M259.6,233.5c-3.1,2.8-5.1,3-6.4,2.6c-1.5-0.4-2.8-2-3.8-1.4c-0.4,0.2-0.6,0.6-0.6,1
						c0.2,0.4,0.6,1.3,0.6,2.4c0,1.1-0.5,2.5-1,2.6c-1,0.1-1.6-3.7-2.4-3.6c-0.7,0.1-0.6,2.8-1.5,6.3c-0.7,2.7-1.8,6.9-5.2,9
						c-0.5,0.3-3.8,2.2-6.8,0.6c-1.7-0.9-3.1-2.7-3.3-4.9c-0.2-2.4,1.2-4.1,1.5-4.5c-0.5-0.2-2.7-1.3-3.7-3.8
						c-0.1-0.2-1.3-3.4,0.2-5.8c1.1-1.7,2.7-1.4,3.1-2.8c0.5-1.5-1.1-2.2-1.2-4.5c-0.1-3,2.6-5.1,2.7-5.2c1.4-1.1,2.8-1.3,3.4-1.4
						c2.9-0.4,5.1,1,5.8,1.4c0.2-0.7,0.8-2.3,2.5-3.4c2.1-1.5,4.5-1.2,5.4-1c0.9,0.1,2.7,0.4,4,1.8c0.7,0.8,1,1.6,1.2,2.2
						c0.5-0.5,1.8-1.8,3.9-2.3c0.7-0.1,2.7-0.6,4.7,0.5c2.8,1.5,3.2,4.9,3.3,5.3c0.3,2.4-1,2.7-0.9,5.2c0.1,3.4,2.4,4.6,1.6,6.1
						c-0.6,1.2-2.8,1.6-4.4,1C260.1,235.9,259.6,233.6,259.6,233.5z"/>
					<path class="st38" d="M247.3,238.8c0-0.1-0.1-0.3-0.2-0.5c0,0-0.1-0.4-0.3-0.7c-0.4-0.7-1.1-1.4-2-1.6c-0.8-0.2-1.6,0.2-2,0.9
						c-0.7,1.1-0.1,2.8,0.4,3.9c0.5,1,1.4,2.4,2.6,2.6c0.1,0,1.1,0.1,1.5-0.5c0.3-0.4,0.2-0.8,0.1-1
						C247.5,241,247.4,239.9,247.3,238.8z"/>
					<path class="st33" d="M245.5,240.2c-0.1-0.8-1-0.3-1.1-1.1c-0.1-0.7,0.8-0.6,0.7-1.2c0-0.6-1.8-0.5-1.5,1.5
						C243.9,241.5,245.5,240.9,245.5,240.2z"/>
				</g>
				<g>
					<path class="st37" d="M432.6,426.9c0,1.5,2.8,10.4,2.8,10.4h13.7c0,0,1.2-3,0.8-4.1s-4.8-4.5-5-5.1c-0.3-0.7-3.6-9.3-3.6-9.3
						S432.6,425.4,432.6,426.9z"/>
					<path class="st37" d="M365.6,418.7c0,0-2.1,6.7-3.1,8.3c-1,1.6-6.7,5.7-7,6.2c-0.2,0.5-1,5.1-1,5.1h19c0,0,0.9-7,0.9-8.4
						c0-1.5-0.6-5.6-0.6-5.6l-0.5-4.8L365.6,418.7z"/>
					<g>
						<defs>
							<path id="XMLID_77_" d="M380.5,314.3c0,0-5,15.9-5.3,20.2c-0.3,4.3-4.9,32.5-5.5,35.1c-2.8,12.8-5.8,40.9-5.8,40.9l2,2.6
								l-2,3.9v5c0,0,3.2-0.9,4.7-0.9s5.6,1.7,5.6,1.7s4.4-12.2,4.4-14c0-1.8,2-2.7,1.8-4c-0.2-1.3-0.6-4.8,0-6.3s3.6-14.7,3.8-18.2
								c0.2-3.5,4.2-14.4,4.2-14.4s4.7-13.9,5.5-15.9c0.7-2,1.9-12.4,6.6-12.4s12.1,14.9,13.3,20.4c1.2,5.5,9.2,32.3,10.4,34.3
								c1.2,2,6,8.7,6,8.7l-1.8,7.2l1.3,9.9c0,0,0.8,5.1,0.9,6.2c0.1,1.1,4.3,0,4.3,0s7.7-1.6,8.9-2.3c1.2-0.6,1.4-3.4,1.1-4.2
								c-0.2-0.9-1-2.6-1-3.5s-5.3-36.2-5.8-38.9c-0.5-2.7-4.6-12.3-5.5-16.3c-0.9-4.1-1.8-13.4-1.8-16.4s-0.5-6.2-0.5-7.5
								s-7-23.1-7-23.1L380.5,314.3z"/>
						</defs>
						<use xlink:href="#XMLID_77_"  style="overflow:visible;fill:#4485F4;"/>
						<clipPath id="XMLID_5_">
							<use xlink:href="#XMLID_77_"  style="overflow:visible;"/>
						</clipPath>
						<path class="st39" d="M392.2,334.9c2.7,1.7,6.2,2.4,9.7,3C397,345.4,395.4,338.6,392.2,334.9z"/>
						<polygon class="st39" points="382.3,406.6 375.7,407.9 379.8,412 						"/>
						<polygon class="st39" points="425.4,397 433.1,402.3 426.6,400.8 						"/>
					</g>
					<g>
						<defs>
							<path id="XMLID_75_" d="M385.1,241.9c-1.4,0.8-1.7,0.7-6.4,2.4c-3.1,1.1-4.6,1.7-4.8,1.9c-2.6,2.4-1,6.3-2.3,12.5
								c-0.7,3.2-3.2,6.3-3,7.6c0.2,1.3,4.4,1.2,7.6,1.2c3.6,0,4.2-0.9,5.1-0.3c3.8,2.2-3.5,16.6-3,31.6c0.1,1.4,0.3,6,0,12.2
								c-0.1,2.8-0.3,5.2-0.5,6.7c9.4,2.5,17.5,3.5,23.4,4c9.8,0.7,14.2-0.1,18.1-2.2c3.2-1.7,5.3-3.9,6.7-5.5
								c-1.2-2.6-1.5-4.7-1.5-6.2c0-2.1,0.4-2.8,0.2-5.5c0-0.9-0.2-2-0.7-4.7c-0.8-3.7-1.3-5.1-1.7-7c-0.5-2.3-2.4-10.5,1.7-16.4
								c0.5-0.7,0.9-1.2,1.2-1.5c0.7,0.4,1.3,1.8,2.2,1.3c0.8-0.5,2-9.1,3.1-11.7c0.8-1.9,1.8-3.9,2-6.8c0.1-1.3,0.2-4.1-1.5-6.6
								c-0.3-0.4-0.8-1.2-2.5-2.5c-0.7-0.5-2-1.5-7.5-4c-1.9-0.8-2.8-1.3-3.7-1.6c-2.4-0.8-4.5-1.2-6.2-1.4
								c-8.8-1.1-10.9,1.3-17.2,0c-0.9-0.2-2.5-0.6-4.4-0.1C387.7,239.8,387.5,240.6,385.1,241.9z"/>
						</defs>
						<use xlink:href="#XMLID_75_"  style="overflow:visible;fill:#034C8A;"/>
						<clipPath id="XMLID_6_">
							<use xlink:href="#XMLID_75_"  style="overflow:visible;"/>
						</clipPath>
						<path class="st40" d="M382.8,255c0,0,0.6,6.8,0.6,11.4c0,1.8-1.7,0.1-1.9,0.9c-0.5,2.8-1.2,4.6-2.4,5.8
							C383.1,275.4,388.8,266.3,382.8,255z"/>
						<path class="st40" d="M416.1,265.6c0,0,4.2-9.6,4.7-11.1c0.5-1.5-8.1,9.8-8.1,9.8L416.1,265.6z"/>
					</g>
					<g>
						<defs>
							<path id="XMLID_76_" d="M400.5,226.8c-0.7,4.6-1.4,9.3-2.2,13.9c4.1,0,8.3,0,12.4,0c-0.7-4.7-1.3-9.5-2-14.2
								C406,226.6,403.3,226.7,400.5,226.8z"/>
						</defs>
						<use xlink:href="#XMLID_76_"  style="overflow:visible;fill:#BC6C56;"/>
						<clipPath id="XMLID_7_">
							<use xlink:href="#XMLID_76_"  style="overflow:visible;"/>
						</clipPath>
						<path class="st41" d="M396.3,231.5l17.3,1.3c0,0-2,6.3-8.6,6.3c-6.6,0-8.6-7-8.6-7"/>
					</g>
					<path class="st33" d="M389.5,239.3c1.4,6.6,7.1,11.4,13.7,11.6c6.4,0.2,12.2-3.9,14.2-10.1c-3-1.2-7.6-2.7-13.4-3.1
						C397.7,237.3,392.7,238.4,389.5,239.3z"/>
					<path class="st37" d="M396.2,222.9c-0.2-3.6-0.4-7.3-0.6-10.9c2.1-4.2,6.4-6.7,10.9-6.3c4.1,0.3,7.7,2.9,9.4,6.7
						c-0.2,3.8-0.5,7.5-0.7,11.3C408.9,223.4,402.5,223.2,396.2,222.9z"/>
					<polygon class="st42" points="394.4,238.2 394.3,243 398.4,246.3 399.9,250.4 403.4,262 400.5,244.9 396.5,241.7 394.9,236.1 
											"/>
					<g>
						<defs>
							<path id="XMLID_74_" d="M369.8,266.3c-0.5,3.4,0.7,12.1,0.9,18.3c0,1.1,0.1,3,1.3,4.6c0.6,0.7,1.7,1.8,4.1,2.5
								c4,1.1,15.8,2.1,31.6,2.7c3.7-1.8,7.4-3.5,11.1-5.3c3.5-3.7,5.3-7.8,4-9.8c-1.7-2.6-8.2-1.4-12.3,1.1c-3.5,2.1-5.3,5.3-6.1,7
								c-3.7-0.8-7.7-1.7-11.9-3c-3.7-1.1-7.1-2.3-10.3-3.5c0.3-2,0.6-4.6,0.5-7.4c-0.1-2.9-0.3-4.3-0.7-6.3
								C377.9,265.9,372.2,265.6,369.8,266.3z"/>
						</defs>
						<use xlink:href="#XMLID_74_"  style="overflow:visible;fill:#BC6C56;"/>
						<clipPath id="XMLID_8_">
							<use xlink:href="#XMLID_74_"  style="overflow:visible;"/>
						</clipPath>
						<rect x="368" y="263.2" class="st43" width="16.3" height="5.7"/>
						<path class="st43" d="M406.2,281.9c0,0,4,4.3,8.4,3.8c4.4-0.5,10.8-7.3,10.8-7.3l-6.8-1.3L406.2,281.9z"/>
					</g>
					<path class="st33" d="M413.7,214.1c0.1,2.3,0.2,4.7,0.3,7c0.4-0.1,1.1-0.2,1.6,0.2c0.9,0.6,0.7,2,0.6,2.8
						c-0.1,0.7-0.2,1.3-0.7,1.8c-0.5,0.4-1.1,0.5-1.4,0.5c-0.2,1.4-0.8,4-2.7,6.5c-1.1,1.5-3.3,4.4-6.3,4.2
						c-2.7-0.1-4.5-2.7-5.8-4.6c-1.8-2.6-2.4-5.1-2.6-6.6c-0.3,0-0.8,0-1.1-0.2c-0.2-0.2-0.3-0.5-0.2-2.1c0.1-2.1,0.4-2.4,0.5-2.6
						c0.4-0.4,1-0.5,1.3-0.5c0.4-2.5,0.8-5.1,1.2-7.6c0.8-0.7,3.2-2.4,6.6-2.6C410.1,210.1,413.3,213.6,413.7,214.1z"/>
					<path class="st42" d="M401.3,245.4c0.4,2.8,0.8,3.4,1.2,5.9c2.2-1.1,4.7-0.5,7.1-1.8c-1.5-3.3-1.7-3.8-2.1-5
						c0.2-2.2,0.5-3.9,0.8-5.1c0.2-1.2,0.4-1.9,0.6-3.1c0.3-1.7,0.4-3.2,0.4-4.1c-0.5,0.1-1,0.2-1.5,0.3c-0.6,0.8-1.1,1.7-1.7,2.5
						c-0.8-1-1.7-2-2.7-3c-1-1-2-1.9-2.9-2.7c-1.8,1.8,0,0-1.8,1.8c0.2,1.8,3.1,4.1,3.3,5.9C403.9,238.9,399.5,243.6,401.3,245.4z"
						/>
					<path class="st33" d="M418.1,266.7c1.6,1.1,2.9,1.3,5.3,2.8c1.3,0.8,2.3,1.6,2.9,2.2c-1,5.8-4.6,10.4-9.4,11.7
						c-2.7,0.8-5.2,0.3-6.7-0.1c-0.5-0.2-1.1-0.5-1.8-1c-2-1.6-2.7-3.9-3.1-5.3c-0.8-3.4-2.8-14.5-5-29.6c-1.8-1.8-3.6-3.6-5.5-5.4
						c-0.2-1.8-0.4-3.6-0.6-5.3c1.8-1.8,3.5-3.5,5.3-5.3c0.9,0.8,1.9,1.7,2.9,2.7c1,1,1.9,2,2.7,3c0.6-0.8,1.1-1.7,1.7-2.5
						c0.5-0.1,1-0.2,1.5-0.3c-0.1,0.9-0.2,2.4-0.4,4.1c-0.2,1.2-0.4,1.9-0.6,3.1c-0.2,1.2-0.5,2.9-0.8,5.1
						c0.8,2.3,3.4,10.1,7.4,15.8C415.3,264.2,416.3,265.6,418.1,266.7z"/>
				</g>
				<g>
					<g>
						<path class="st44" d="M485.5,381.9c0.2,0,0.3,0,0.5,0.1l-0.5,0.2L485.5,381.9C485.4,382,485.4,381.9,485.5,381.9z"/>
						<path class="st44" d="M477.9,438.3c0-0.1,0.1-0.2,0.2-0.2c0.2-0.2,0.4-0.3,0.6-0.5c1.4-1,2.4-2.3,3.6-3.4
							c0.1-0.1,0.4-0.2,0.6-0.4c0.2-0.2,0.3-0.4,0.3-0.7c0.1-0.2,0.1-0.5,0.1-0.7c0.2-1.3,0-2.6-0.1-3.8c-0.2-2.2-1-8.1-1-8.9
							c0-0.2,0-0.4,0-0.7c0-0.3,0-0.5-0.1-0.8l0-0.1c0.4,0.1,0.8,0,1,0c1.9,0,3.8-0.4,5.6-0.9c0.8-0.2,1.6-0.5,2.4-0.8
							c0.2-0.1,0.6-0.3,0.7-0.5c0.1-0.3-0.1-0.7-0.3-1c0.1,0.1,0.3,0.2,0.5,0.3c0.4,0.2,0.8,0.4,1.1,0.5c0.4,0.2,0.8,0.5,1.2,0.8
							c0.5,0.4,0.8,1,1.1,1.6c0.2,0.4,0.3,0.9,0.4,1.3c0.5,2.2,0.1,4.5,0.4,6.9c0.2,1.9,0.5,3.9,0.9,5.8c0.1,0.5,0.3,1.5,0.3,1.5
							c0,0.2,0.2,0.6,0.3,1c0,0.1,0,0.2,0.1,0.2l0,0c0,0,0,0-0.1,0c-0.1,0-0.3,0.1-0.5,0.1c-0.1,0-0.2,0-0.3,0.1l0,0l0,0
							c0-0.1-0.1-0.3-0.1-0.4c0-0.1,0-0.3-0.1-0.3c-0.5-2.2-1.7-6.6-1.7-6.6c0-0.2-0.1-0.6-0.2-1.1c0-0.2-0.1-0.4-0.2-0.5
							c-0.1-0.2-0.2-0.3-0.4-0.4c-0.1-0.1-0.3-0.1-0.4-0.1c-0.4,0.1-0.8,0.4-1.1,0.8c-0.3,0.3-0.6,0.7-0.8,1
							c-0.4,0.6-0.7,1.2-0.9,1.9c-0.5,1.7-0.5,3.6-0.8,5.3c-0.1,0.7-0.2,1.4-0.6,1.8c-0.5,0.6-1.5,0.8-2.3,1.1
							c-0.6,0.2-1.2,0.3-1.8,0.5c-1.4,0.3-2.7,0.6-4.1,0.9l0,0c-0.3,0.1-0.7,0.2-1.2,0.3c-0.4,0.1-0.8,0.2-1.2,0.2
							c-0.4,0-0.7,0-1-0.2c-0.1-0.1-0.2-0.2-0.3-0.4l0,0C477.9,438.5,477.9,438.4,477.9,438.3z"/>
						<path class="st44" d="M480.7,414.6c-0.4-3.9-0.5-7.7-1.8-11.5c-1.4-4.2-2.8-8.4-3.9-12.8c-0.6-2.2-1.1-4.3-1.6-6.5
							c-0.5-1.9-1-3.8-1.2-5.8c-0.2-1.8,0.1-3.7,1.2-5.1c1.8-2.2,4.9-3,7.5-3.7c1-0.3,2-0.5,2.9-0.7l0,0.3c0,0,0,0,0,0
							c0.1,0,0.2-0.1,0.2-0.2c0-0.1,0-0.2,0-0.2c0.1,0,0.1,0,0.2,0c10.5-3.4,21-7,31.5-10.6c1.1-0.4,1.7-1.2,1.9-2.1
							c4.6,1.5,9.1,3.9,13.2,6.4c0,0.3,0,0.6,0,0.9c0,0.2-0.1,0.5-0.1,0.8c0,0.2,0,0.4,0,0.6l0.2-0.1c0.7,2.1,1.3,5.2,0,7.2
							c-1.4,2.2-4.4,2.9-6.7,3.6c-4.1,1.3-8.3,2.2-12.5,3.1c-4.4,1-8.8,1.9-13.2,2.7c-2,0.4-4.1,0.7-6.1,1c-1.9,0.2-4,0.5-5.9,0.4
							c-2.7-0.1,0.3-1.5,2.4,11.1c0.7,4.2,0.8,8.5,1,12.8c0.1,1.9,0.2,3.8,0.7,5.6c0.2,0.8,0.5,1.6,0.8,2.4c0.1,0.1,0.2,0.4,0.3,0.6
							c0.2,0.4,0.3,0.8,0.3,1c-0.1,0.3-0.4,0.4-0.7,0.5c-0.8,0.4-1.6,0.6-2.4,0.8c-1.8,0.5-3.7,0.9-5.6,0.9c-0.3,0-0.7,0-1,0
							c-0.3,0-0.6-0.2-0.8-0.4C480.7,417,480.8,415.5,480.7,414.6z"/>
					</g>
					<path class="st45" d="M488.6,383.3h40.2c1.1,0,2-0.9,2-2v-4.4c0-1.1-0.9-2-2-2h-40.2c-1.1,0-2,0.9-2,2v4.4
						C486.6,382.4,487.5,383.3,488.6,383.3z"/>
					<path class="st45" d="M541.5,348.1c0-7.2-0.2-14.3,0.1-21.5c0.2-4.7,0.1-9.5-0.5-14.2c-0.3-2.1-1.7-11.5-5.8-9.7
						c-0.8,0.3-1.1,1.5-1.3,2c0.2,14.5,0.4,29,0.5,43.4c0,1.9,1.3,3.4,2.8,3.4h1.3C540.2,351.5,541.5,350,541.5,348.1z"/>
					<path class="st46" d="M541.7,323.7v45.5c0,3.7-1.5,7.2-4,9.8c-2.6,2.6-6.1,4-9.8,4h-34"/>
					<rect x="509.8" y="383.3" class="st47" width="3.4" height="49.4"/>
					<rect x="507" y="405.9" class="st47" width="9" height="16.9"/>
					<path class="st47" d="M481.3,434.4c4-2.7,15.1-9.3,30.8-9.1c14.9,0.2,25.5,6.4,29.5,9.1c0-0.9,0-1.9,0-2.8
						c-4.3-2.7-14.8-8.6-29.5-8.8c-15.5-0.2-26.6,6.1-30.8,8.8C481.3,432.5,481.3,433.4,481.3,434.4z"/>
					<circle class="st47" cx="541.7" cy="434.4" r="3.9"/>
					<circle class="st47" cx="481.3" cy="434.4" r="3.9"/>
					<circle class="st47" cx="511.5" cy="434.4" r="3.6"/>
					<g>
						<path class="st44" d="M498.4,438.7L498.4,438.7L498.4,438.7z"/>
						<g>
							<path class="st38" d="M450.6,436.2c0.1-0.1,0.2-0.2,0.3-0.2c0.3-0.1,0.6-0.3,0.9-0.4c1.9-0.8,3.4-1.9,5.2-2.8
								c0.2-0.1,0.5-0.2,0.8-0.3c0.3-0.2,0.4-0.4,0.6-0.7c0.1-0.3,0.3-0.5,0.4-0.7c0.6-1.4,0.8-2.9,1-4.3c0.3-2.5,1.2-9.4,1.3-10.3
								c0-0.2,0.1-0.4,0.2-0.7c0.1-0.3,0.1-0.6,0.1-0.9l0-0.2c0.4,0.2,0.9,0.2,1.2,0.3c2.2,0.5,4.5,0.6,6.8,0.5c1,0,2-0.1,3-0.3
								c0.3-0.1,0.8-0.1,0.9-0.4c0.2-0.3,0.1-0.8,0-1.2c0.1,0.2,0.3,0.3,0.5,0.4c0.4,0.3,0.8,0.6,1.1,0.9c0.4,0.4,0.8,0.8,1.2,1.2
								c0.4,0.6,0.7,1.3,0.8,2.1c0.1,0.5,0.1,1.1,0.1,1.6c0,2.6-1.1,5.1-1.5,7.9c-0.3,2.2-0.5,4.5-0.6,6.7c0,0.6-0.1,1.8-0.1,1.8
								c0,0.2,0,0.7,0,1.2c0,0.1,0,0.2,0,0.3l0,0c0,0,0,0-0.1,0c-0.2,0-0.4,0-0.6,0c-0.1,0-0.2,0-0.3,0l0,0l0-0.1c0-0.1,0-0.3,0-0.5
								c0-0.2,0-0.3,0-0.4c0-2.6-0.1-7.9-0.1-7.9c0-0.2,0.1-0.7,0.1-1.3c0-0.2,0-0.4-0.1-0.7c0-0.2-0.1-0.4-0.3-0.6
								c-0.1-0.1-0.3-0.2-0.5-0.2c-0.5,0-1,0.3-1.5,0.6c-0.5,0.3-0.9,0.6-1.2,0.9c-0.6,0.5-1.1,1.2-1.6,1.8
								c-1.1,1.8-1.6,3.9-2.4,5.7c-0.3,0.7-0.6,1.5-1.2,1.8c-0.7,0.5-1.9,0.5-2.9,0.6c-0.7,0-1.5,0-2.2,0c-1.7,0-3.3-0.1-5-0.1h-0.1
								c-0.3,0-0.9,0-1.5,0c-0.5,0-1,0-1.5-0.1c-0.5-0.1-0.8-0.2-1.1-0.4c-0.1-0.1-0.2-0.3-0.3-0.5l0,0
								C450.5,436.3,450.6,436.3,450.6,436.2z"/>
							<g>
								<defs>
									<path id="XMLID_62_" d="M460.6,410.3c0.7-4.5,1.5-8.8,1.1-13.4c-0.5-5.1-0.9-10.3-1-15.4c0-2.6-0.1-5.2-0.1-7.8
										c0-2.3-0.1-4.6,0.2-6.8c0.3-2.1,1.1-4.1,2.9-5.4c2.7-2,6.5-2,9.7-2.1c1.2,0,2.4,0,3.6,0l0,0.3c0,0,0,0,0,0
										c0.1,0,0.2-0.1,0.3-0.2c0.1-0.1,0.1-0.2,0-0.3c0.1,0,0.1,0,0.2,0c13.2-1,26.4-2.1,39.5-3.3c1.4-0.1,2.4-0.9,2.8-1.9
										c4.9,2.9,9.4,6.9,13.5,10.8c-0.1,0.4-0.2,0.7-0.3,1c-0.1,0.3-0.2,0.6-0.3,0.9c-0.1,0.2-0.2,0.5-0.2,0.7l0.3,0
										c0.2,2.5,0,6.2-2,8.1c-2.3,2-6,2.1-8.8,2.3c-5.1,0.3-10.3,0.2-15.4,0.1c-5.4-0.1-10.7-0.3-16.1-0.6
										c-2.5-0.1-4.9-0.3-7.4-0.6c-2.3-0.3-4.7-0.5-7-1.2c-0.4-0.1-1.1-0.4-1.1-0.4c0.8,4.4,1.1,9,0.7,13.5
										c-0.4,4.9-1.5,9.8-2.4,14.7c-0.4,2.2-0.8,4.3-0.8,6.5c0,1,0.1,1.9,0.2,2.9c0,0.2,0.1,0.4,0.2,0.7c0.1,0.4,0.2,0.9,0,1.2
										c-0.2,0.3-0.6,0.4-0.9,0.4c-1,0.2-2,0.2-3,0.3c-2.2,0.1-4.6,0-6.8-0.5c-0.3-0.1-0.8-0.2-1.2-0.3c-0.4-0.1-0.7-0.4-0.9-0.7
										C459.9,413,460.4,411.3,460.6,410.3z"/>
								</defs>
								<use xlink:href="#XMLID_62_"  style="overflow:visible;fill:#38AAE3;"/>
								<clipPath id="XMLID_9_">
									<use xlink:href="#XMLID_62_"  style="overflow:visible;"/>
								</clipPath>
								<path class="st48" d="M469.9,371.2l8.2,6v4.4C478,381.6,470.5,375.7,469.9,371.2z"/>
							</g>
						</g>
						<g>
							<defs>
								<path id="XMLID_11_" d="M520.2,304.3c-3.5,1.7-6.9,4.2-10.2,6.3l0,0c0-0.1,0-0.2,0-0.3c0-0.1-0.1-0.1-0.2-0.2
									c0,0,0-0.1,0-0.2c0-0.2,0.1-0.4,0.1-0.6c0.3-1.5,0.7-3.1,1.1-4.7c0.2-0.7,0.4-1.5,0.8-2c0.2-0.2,0.4-0.4,0.6-0.6
									c0.1-0.1,0.3-0.2,0.4-0.3c0.1-0.1,0.3-0.3,0.3-0.6l0-0.1l0,0c-0.1-0.3-0.2-1-0.8-1.6c-0.2-0.2-0.9-0.9-1.7-0.8
									c-0.4,0-0.4,0.2-1.1,0.5c-0.5,0.2-1.1,0.4-1.7,0.1c-0.4-0.2-0.6-0.4-0.8-0.7c-0.1-0.2-0.2-0.3-0.3-0.4
									c-0.3-0.6-0.4-1.2-0.4-1.3c-0.1-0.5-0.6-2-2.4-5.8c-0.4-0.4-0.7-0.5-0.9-0.5c0,0-0.4,0-0.8-0.2c-0.1-0.1-0.2-0.1-0.2-0.2
									c-0.1-0.1-0.1-0.2-0.1-0.4c0-0.2,0.1-0.5,0.2-0.7c0.3-0.6,0.9-1.1,1.3-2c0.3-0.8,0.2-1.5,0.2-2.2c0.1-1.3,0.4-2.7,0.6-4.1
									c0.2-1.5,0.4-3.1,0.8-4.6c0.2-0.6,0.4-1.1,0.6-1.7l0-0.2c0-0.3-0.1-0.6-0.1-0.8c0-0.5,0-0.8,0.3-1
									c4.9-3.5,29.9-5.7,19.7,19.6c-0.1,0.4-0.2,0.8-0.2,1.2c-0.1,0.4-0.2,0.7-0.3,0.8l-0.1,0.1c-0.1,0-0.2,0-0.3,0
									c-0.1,0.1-0.1,0.2-0.1,0.3c0,0.5,0,1,0.1,1.4c0,0.1,0,0.2,0,0.4c0,0.2,0,0.3,0.1,0.5c0,0.1,0.1,0.1,0.2,0.2
									c0.1,0.1,0.2,0.1,0.3,0.1c0.1,0,0.1,0,0.2,0l0,0c0.3,0,0.5,0.1,0.7,0.3c0.3,0.3,0.5,0.8,0.7,1.4c0.2,0.6,0.2,1.2,0.2,1.7
									c0,0.1,0,0.2,0,0.3c0,0.1-0.1,0.3-0.1,0.5c0,0.1,0,0.2,0,0.2c0,0,0,0.1,0,0.1c-1,0.3-2,0.7-3,1.2
									C522.5,303.2,521.3,303.8,520.2,304.3z"/>
							</defs>
							<use xlink:href="#XMLID_11_"  style="overflow:visible;fill:#D08B73;"/>
							<clipPath id="XMLID_10_">
								<use xlink:href="#XMLID_11_"  style="overflow:visible;"/>
							</clipPath>
							<path class="st49" d="M510.2,298.8c0,0,4.3-2.5,5.9-5c1.5-2.5,1.5-2.5,1.5-2.5l-5.3,9.3L510.2,298.8z"/>
						</g>
						<path class="st38" d="M521.4,320c0.1,0.1,0.1,0.2,0.2,0.3C521.5,320.2,521.4,320.1,521.4,320C521.4,320,521.4,320,521.4,320z"
							/>
						<g>
							<defs>
								<path id="XMLID_60_" d="M533.5,364.9c0.2-0.7,0.3-1.4,0.3-2.1l0-0.2c0-1.5-0.7-2.8-1.1-4.4c-0.6-3.1,1.4,4-0.1-22v0
									c0-4.9,4.5-8.5-0.3-22.4c-0.9-2.7-2-5.3-3.3-7.9c-0.6-1.2-1.3-2.5-2-3.6c-0.1-0.2,0-0.6-0.1-0.7c0-0.1-0.2,0.2-0.2,0.1
									c-1,0.3-2.7-0.6-3.6-0.1c-1.2,0.4-2.8,0.8-3.9,1.3c-3.5,1.7-5.9,5.6-9.2,7.8c-1.4,4.3-6.4,7.7-4.5,17.8
									c0.7,3.4,1.5,6.9,1.8,10.4c0.1,0.9,0.2,1.9,0.2,2.9c0,0.5,0,1-0.1,1.5c-0.1,1.1-0.5,2-0.7,2.9c-0.2,0.7-0.3,1.5-0.4,2.2
									c0,0.3-0.4,3.3-0.4,3.6c1.6,0.3,3.5-2.2,5-1.8C519.6,352.4,527.1,358.7,533.5,364.9z M521.4,320
									C521.4,320,521.4,320,521.4,320c0.1,0,0.2,0.1,0.2,0.3C521.5,320.2,521.4,320.1,521.4,320z"/>
							</defs>
							<use xlink:href="#XMLID_60_"  style="overflow:visible;fill:#FAAE26;"/>
							<clipPath id="XMLID_12_">
								<use xlink:href="#XMLID_60_"  style="overflow:visible;"/>
							</clipPath>
							<path class="st50" d="M517.6,320.1c0,0-5,13.8-5.7,20.7c-0.7,7-0.4,8.6-0.4,8.6l7.8-3.6L517.6,320.1z"/>
						</g>
						<path class="st51" d="M475.2,438.1L475.2,438.1L475.2,438.1z"/>
						<path class="st51" d="M513,301L513,301L513,301z"/>
						<g>
							<defs>
								<path id="XMLID_61_" d="M526.9,301.5c3.2,5.4,3.8,7,5.2,10.8c1.4,3.8,2.6,7.8,2.8,11.9c0.1,1.7-0.1,3.4-0.4,5
									c-0.4,1.9-1.1,3.6-1.4,5.5c-0.3,1.6,0,3.3,0,4.9c0.1,2,0.3,4,0.5,6c0.2,2,0.2,4.1,0.2,6.1c0,1.6-0.1,3.2-0.6,4.7
									c-0.6,2.1,0.9,3.9,0.9,6c0,1.4-0.3,2.9-0.8,4.3c-1.4,4.5-4.9-2.3-15.8-2.3c-7.7,0-6-5.9-9.8-5.7l11.1-10L526.9,301.5z"/>
							</defs>
							<use xlink:href="#XMLID_61_"  style="overflow:visible;fill:#FAAE26;"/>
							<clipPath id="XMLID_13_">
								<use xlink:href="#XMLID_61_"  style="overflow:visible;"/>
							</clipPath>
							<path class="st52" d="M529.6,322.5c0,0-0.6,28.7-1.3,30.8c-0.6,2.1-20.1,5.5-20.1,5.5l16.7-12L529.6,322.5z"/>
						</g>
						<path class="st37" d="M472.4,415.2c-0.2,0.8-0.4,1.6-0.8,2.4c-1,2.2-2.5,4.2-3.8,6.2c-1.4,2.2-2.7,4.4-4.2,6.6
							c-0.7,1.1-1.6,2-2.9,2.1c-0.6,0.1-1.3,0.1-1.9,0c-0.4-0.1-0.8-0.3-1.1-0.3c-0.3,0-0.6,0.2-0.9,0.3c-1,0.6-2,1.3-3,1.8
							c-0.9,0.5-1.9,0.8-2.8,1.2c-0.3,0.1-0.7,0.3-0.8,0.6c-0.1,0.5,0.4,1,0.8,1.2c1.2,0.6,2.9,0.4,4.2,0.4c2.7,0,5.5,0.3,8.2-0.1
							c0.9-0.1,1.8-0.3,2.4-1c1.1-1.3,1.5-3.3,2.1-4.9c0.5-1.3,1.2-2.7,2.2-3.7c0.7-0.7,1.7-1.3,2.6-1.6c0.3-0.1,0.5-0.2,0.7,0.1
							c0.3,0.6,0,1.6,0,2.2c0,1.3,0.1,7.6,0.1,8.1c0,0.2-0.1,0.7,0,0.8c0.1,0.2,0,0.1,0.3,0.1c0.2,0,1,0.1,1.2,0
							c0.2-0.2,0.1-1.4,0.1-1.8c0-1.3,0.1-2.5,0.2-3.8c0.2-2.4,0.3-4.9,1-7.2c0.5-1.9,1.1-3.6,1-5.6c-0.1-1.1-0.2-2.2-0.7-3.2
							c-0.8-1.4-2.3-2.4-3.4-3.4L472.4,415.2z"/>
						<path class="st29" d="M523.5,297c-2.6,0.6-5.1,1.5-7.5,2.6c-1.5,0.7-3.3,1.5-4.3,2.8c-1.1,1.3-1.2,3.3-1.6,4.8
							c-0.1,0.4-1.3,3.2-0.3,3.3c0.9,0.2,2.1-1.3,2.6-1.8c2-1.9,4-3.6,6.4-4.9c1.7-0.9,3.7-1.7,5.7-1.8c0.8,0,2.2,0.2,2.6-0.7
							c0.4-1-0.1-2.5-0.4-3.4c-0.3-0.9-0.8-1.3-1.8-1.2C524.3,296.8,523.9,296.9,523.5,297z"/>
						<path class="st37" d="M519.7,287.8c0.3,1,0.7,2.5,0.9,4.5c0.7,5.9-0.9,7.6,0.4,10c1.8,3.2,5.6,1.8,7.4,5.2
							c1.3,2.5-0.4,3.9,0.8,6.7c1.2,2.7,4.5,5.2,7.4,4.7c3.9-0.7,6.5-6.6,5.4-10.6c-1.2-4.4-6.3-4.5-7.4-9.5
							c-0.7-2.9,0.9-3.4,0.1-6.7c-0.9-3.8-3.3-4.2-4.1-7.9c-0.6-2.7,0.6-2.9,0.3-6.5c-0.1-1.7-0.5-6.7-4.3-9.3
							c-0.7-0.5-2.8-1.8-6.3-1.5c-0.6-0.3-4.6-2.7-9.1-0.9c-4,1.5-5.5,5-5.9,6c-0.5,1.2-1.3,3.7-0.6,4.1c0.2,0.1,0.3,0,0.6,0.1
							c1.1,0.2,1.6,1.8,2.4,3c0,0,1,1.5,3.2,2.5c2.6,1.3,5.5,0.3,6.7-0.2L519.7,287.8z"/>
						<path class="st38" d="M516.1,287.9c0.1,0.9,1.1,1.5,2,1.3c1.1-0.2,1.8-1.4,2.2-2.4c0.6-1.2,1.1-2.6,0.9-3.9
							c-0.2-1.8-2-2.7-3.5-1.5L516.1,287.9z"/>
						<path class="st33" d="M518.2,282.9c-0.2,0.9,0.9,0.7,0.8,1.5c-0.2,0.8-1,0.3-1.2,0.9c-0.2,0.6,1.6,1.2,2.1-1
							C520.3,282.1,518.4,282.2,518.2,282.9z"/>
						<path class="st32" d="M516.9,319.8c-0.3,1-0.6,2.5-0.9,4.2c-0.2,1.2-0.7,4.3-0.8,9.7c-0.1,3-0.1,6.9,0.2,11.4
							c-3,1.8-5.6,3.2-7.7,4.1c-4.1,2-6.2,2.7-7.4,3.2c-2.5,0.9-4.9,1.4-7.5,1.9c-0.9,0.2-0.9,0.7-0.7,1.5c0.4,1.8,1.3,3.4,1.5,5.3
							c0.1,0.8,0,1.7,1,1.7c1.7,0.1,3.7-0.8,5.3-1.3c2.8-0.9,5.6-1.8,8.3-2.8c2.6-0.9,5.2-1.9,7.8-2.9c2.6-1,5.2-1.9,7.7-3.1
							c2.7-1.3,3.4-4.1,3.9-6.9c0.4-2.2,0.6-4.5,0.8-6.7c0.4-3.9,0.7-7.9,1.1-11.8c0.2-2.2,0.5-4.5,0.5-6.7c0-2.8-0.4-5.5-1-8.2
							L516.9,319.8z"/>
						<path class="st38" d="M492,355c-8-0.4-3.1-4.5-12.6,1.2c-0.4,0.2-4.6,3.7-0.9,3.1c6.2-1.1,7.4,0.7,11.2,1.4
							c1.2,0.2,2.5,0.1,3.7-0.1L492,355z"/>
					</g>
				</g>
				<g>
					<g>
						<g>
							<defs>
								<path id="XMLID_72_" d="M597.5,419.7c0,0,0.5,5.6,0.6,7c0.2,1.4,1.5,2.9,1.5,5.5c0,2.6-14.8,5-14.8,5h-10.1l2.4-6.3
									c0,0,7.8-3.2,9-4.6c1.2-1.4,2.1-7.9,2.1-7.9L597.5,419.7z"/>
							</defs>
							<use xlink:href="#XMLID_72_"  style="overflow:visible;fill:#D08B73;"/>
							<clipPath id="XMLID_14_">
								<use xlink:href="#XMLID_72_"  style="overflow:visible;"/>
							</clipPath>
							<path class="st53" d="M585.3,422.2c0,0,7.2,1.7,8.9,1.6c1.7-0.1,7.8,0,7.8,0l-2.4-6.5l-20.4-0.8L585.3,422.2z"/>
						</g>
						<path class="st37" d="M599.9,428.6c-0.3-1.4-2-2-3.1-1.1c-1.6,1.2-3.5,2.6-4.3,3c-1.6,0.8-8.3,0.3-10.9,0.3
							c-2.6,0-4.3,0.2-4.3,0.2s-7.8,2.9-9.5,3c-1.7,0.1-2.4,2.1-1.1,3.2c1.3,1.1,32.6,1,32.6,1s2.6-1.8,2.1-4.2
							C600.9,432.7,600.3,430.4,599.9,428.6z"/>
					</g>
					<g>
						<defs>
							<path id="XMLID_71_" d="M600.4,313.6c0,0,4.1,9.2,3.7,12.7c-0.5,3.5-3.4,9.2-3.7,15.7c-0.3,6.6-3.2,17.7-3.2,19.7
								s0.5,12.1,0.5,12.1s4.4,5.6,5,16.4c0.7,10.8,1.4,30.7,1.4,30.7s-4.8,1.4-6.9,1.4c-2.1,0-10.1-2.3-10.1-2.3s0.7-19.5,0-22.4
								c-0.7-3-2.7-9.8-3-11.9c-0.2-2.1-3.2-3.9-3.2-6.2c0-2.3-2.3-18.6-3.4-19.5c-1.1-0.9-4.8-19.7-4.6-21.5
								c0.2-1.8,0.7,1.1-0.1-4.4c-0.8-5.5,0-8.2,0-8.2l0.3-2.6c0,0,7.6-11.8,10.5-12C586.5,310.9,600.4,313.6,600.4,313.6z"/>
						</defs>
						<use xlink:href="#XMLID_71_"  style="overflow:visible;fill:#434E84;"/>
						<clipPath id="XMLID_15_">
							<use xlink:href="#XMLID_71_"  style="overflow:visible;"/>
						</clipPath>
						<path class="st54" d="M575.2,325.4c0,0,5.6,9.3,13.7,10.1"/>
						<path class="st54" d="M589.6,322.4c0,0-1.7,29.4-1.3,35.8c0.4,6.4,6.6,28.7,6.9,30.7c0.3,2,4.4,35,4.4,35"/>
						<polyline class="st54" points="605.5,319 600,320.6 585.9,322.4 566.5,327.7 						"/>
					</g>
					<path class="st30" d="M592.2,248.4c0,0-14.8,8.9-16.8,13.1c-2,4.3-3.2,12.8-2.1,15.3c1.1,2.4,0.3,18,0.3,18l-0.5,29.2
						c0,0,11-4,17.6-5.2c6.6-1.2,12.5-2.4,12.5-2.4s-4.1-11-4.4-19.8c-0.3-8.9,2.1-25,0.6-31.8C597.8,258,592.2,248.4,592.2,248.4z"
						/>
					<g>
						<path class="st37" d="M588,245.2c10.5-11.5-0.3-23.2-4.8-28.5c-3.3-3.8-18.8,4.1-19.4,4.8c-1,1.2-1.4,3.4,0,4.2
							c1.4,0.7,2.8,0.9,4.2,1.7c1.7,1.4,3.5,2.7,5.3,4.1c-0.4,1.3,1.9,2.9,2.8,5.1c0.9,2.2,4.8,1.2,4.8-2.4
							C580.8,233.1,586.8,245.7,588,245.2z"/>
						<path class="st38" d="M565.7,226.4c-0.4,1.6-0.9,3.3-1,4.9c-0.1,1.5,0.5,1.5,1,3c0.5,1.5-1.4,3.6-1.3,5c0,0.2,0.1,0.3,0.2,0.5
							c0.6,0.9,2.4,0.7,2.8,0.7c1.1,2.5,2.3,5,3.4,7.5c0.2,0.5,0.6,1,1.2,1.4c1.7,0.9,4.1-0.8,4.9-1.4c2.6-1.9,3.6-4.7,3.9-5.7
							c0.9-3.4,0-6.2-0.4-7.3c-1.1,0.4-2.1,0.9-3.2,1.3c-0.2-0.6-1.2-3.2-2.1-4.7c-0.3-0.6-0.6-0.8-0.8-0.9c-0.8-0.4-1.7,0.1-2.3-1
							c-0.8-1.4-1.5-3.9-3-3.9C567.4,225.9,567,226.3,565.7,226.4z"/>
						<g>
							<defs>
								<path id="XMLID_70_" d="M593.7,250.1c-0.9-1-1.8-2-2.5-3c-0.7-0.8-1.1-1.4-1.4-2.2c-0.3-0.7-0.3-1.4-0.4-1.9
									c-0.2-0.2-0.6-0.5-0.9-1c-0.6-0.9-0.7-1.7-0.8-2c-0.2-0.9-0.9-2.1-3.1-3.5c0-0.4,0.5-3.8-1.6-5.6c-0.2-0.2-0.9-0.7-1.9-0.9
									c-3.4-0.9-4.4,2.7-2,5.1c2.9,2.9,2.3,6.5,0.8,8.8c-0.9,1.4-1.4,2.5-1.8,3c-0.1,0.2-0.4,0.5-0.8,0.8c-0.5,0.4-1.6,0.8-4.4,2
									c2.2-0.9,4.8,1.3,5.9,3.7c1.1,2.4-0.1,4.5,0.8,5.2C580.5,259.4,583.9,258.2,593.7,250.1z"/>
							</defs>
							<use xlink:href="#XMLID_70_"  style="overflow:visible;fill:#D08B73;"/>
							<clipPath id="XMLID_17_">
								<use xlink:href="#XMLID_70_"  style="overflow:visible;"/>
							</clipPath>
							<polygon class="st55" points="573.3,248.8 581.1,240.1 577.2,252.6 571.5,249.2 							"/>
						</g>
					</g>
					<path class="st31" d="M584.2,265.4l11,24.1c-2.4,0.3-12.1-13.7-11-16.4C585.1,270.6,584.2,265.4,584.2,265.4z"/>
					<g>
						<defs>
							<path id="XMLID_69_" d="M601.3,269.7l6.6,21.5c0,0,2.1,3.3,1.4,4.9c-0.7,1.6-6.4,8.6-6.4,8.6s-14.1,15-15.3,15.9
								c-1.2,0.9-1.2,5.6-1.5,6.6s-3.8,3.7-4.9,4.1c-1.1,0.4-5.5-5-5.6-5.7s0.6-2.7,0.4-3.3c-0.2-0.6-2.7,0.5-3.1-0.6
								c-0.4-1.1,1.1-2.9,2-2.9c0.9,0,5.8,0.3,6.6-0.3c0.8-0.6,15.4-24.1,15-26c-0.5-1.8-2.7-3-3.7-5c-0.9-2.1-6-16.5-6-16.5
								L601.3,269.7z"/>
						</defs>
						<use xlink:href="#XMLID_69_"  style="overflow:visible;fill:#D08B73;"/>
						<clipPath id="XMLID_18_">
							<use xlink:href="#XMLID_69_"  style="overflow:visible;"/>
						</clipPath>
						<path class="st56" d="M589.6,278.7c0,0,5.1-4.1,6.6-4.5c1.5-0.5,7,1.4,7,1.4l-1.6-5c0,0-5.5-1.2-7.4,0c-2,1.2-6.1,4.9-6.1,4.9
							L589.6,278.7z"/>
					</g>
					<path class="st30" d="M592.2,247.9c0,0,7.9,6.7,9.5,11.9c1.5,5.2,1.5,14,1.5,14s-3.4-2.6-5-2.1s-6.5,3-7.3,3.8
						c-0.8,0.8-1.8,1.3-1.8,1.3l-7.1-9.3c0,0-5-6.5-4.2-7.8C578.4,258.3,581.2,252.8,592.2,247.9z"/>
					<g class="st57">
						<path class="st10" d="M582.3,234.1c-0.1-0.1,0.3-0.3,0.3-0.6c0-0.3-0.3-0.9-0.9-1.2c-0.5-0.3-1.2-0.2-1.5,0.1
							c-0.3,0.3-0.7,0.5-0.8,0.4c0-0.1,0.1-0.3,0.4-0.8c0.4-0.5,1.3-0.8,2.2-0.4c0.8,0.4,1.3,1.3,1,2c-0.1,0.3-0.4,0.5-0.5,0.5
							C582.5,234.1,582.4,234.1,582.3,234.1z"/>
					</g>
				</g>
				<g>
					<g>
						<path class="st37" d="M213.6,433.4c-0.1-1.4-1.2-2.4-1.9-3.4c-1.4-2-2.5-4-3.1-6.4c-0.5-1.9-0.8-3.7-0.9-5.6
							c0-1.1,0.1-2.3,0.1-3.4c0-0.3,0-0.8-0.2-1c-0.2-0.3-0.6-0.2-0.7-0.4c-0.1-0.1,0,0,0,0c0.9-1,1.8-2.1,2.6-3.1
							c0.4,0.2,0.7,0.4,1.2,0.5c0.9,0.4,1.9,0.8,3,0.8c1.9-0.1,3.3-2.2,4.3-3.4c5.6-6.4,10.2-13,13.8-20.6c1.9-4,2.6-7.8,3.6-12
							c0.5-1.9,1-3.6,1.5-5.5c0.3-1,0.5-1.9,0.5-2.9c0.1-1.3-0.4-2.4-0.8-3.6c-13.8-10-27.6-17.1-44.4-21.2c-7,0.4-18.7,2.5-23.7,6
							c-5,3.4-4.5,6.3-5.3,10.1c-0.8,3.8-0.1,5.7,0.9,8.8c0.7,2.3,2,4.4,3.8,5.9c1.5,1.2,3.4,1.4,5.2,1.5c3.5,0.1,7-0.6,10.4-1.2
							c7.4-1.4,14.7-2.8,22.2-3.4c1.8-0.1,3.4,0.1,5.1,0c1.7-0.1,3.1-0.4,4.7-0.5c1.2-0.1,2.4-0.3,3.5,0.3c0.4,0.2,0.8,0.5,0.8,0.9
							c0.1,0.3,0,0.5,0,0.7c-0.1,0.8-0.5,1.4-0.8,2.2c-0.7,1.6-1.2,3-1.9,4.6c-1.5,3.1-3.3,5.9-5.5,8.6c-2.2,2.7-4.4,5.4-7.1,7.9
							c-2.4,2.1-5.2,4.4-7.1,7c-0.5,0.7,0,1.4-0.3,2.1c0,0,0,0,0,0c-0.6,0.6-1.3,1.3-1.9,1.9c-0.1-0.1-0.1-0.2-0.2-0.3
							c-0.5-0.6-0.8-0.8-1.7-0.7c-1.7,0.3-3.2,1.1-4.8,2c-1.6,0.9-3.5,1.8-4.6,3.4c-0.4,0.6-0.6,1.2-0.3,2c0.5,1.2,1.7,2.2,2.6,3.1
							c2.4,2.4,4.7,4.6,7,7c3.6,3.7,7.1,7.4,11,10.8c1.5,1.3,3.1,2.5,4.9,3.3c0.8,0.4,1.7,0.7,2.6,0.5
							C212.9,436,213.7,434.8,213.6,433.4z"/>
						<path class="st33" d="M169.9,318.3c0.5,2.4,1.6,4.7,2.7,6.9c0.6,1.1,1.3,2,2.3,2.8c1.6,1.3,3.7,2,5.6,2.7
							c2.9,1,5.8,1.8,8.7,2.7c4.7,1.4,7,1.9,7.7,2c2.9,0.6,7.2,1,12.7,0.3c0.6,0.8,1.7,1.9,3.3,2.9c2,1.2,3.7,1.5,4.3,1.6
							c1,0.2,1.8,0.2,3.4,0.1c1-0.1,1.9-0.2,2.9-0.1c1.5,0.1,2.8,0.8,4.2,1c1.3,0.2,2.8-0.3,2.8-1.8c0-0.3-0.1-0.5-0.9-1.7
							c-0.7-0.9-1.3-1.6-1.7-2.1c-1.9-0.4-3.4-0.8-4.4-1.1c-5.2-1.5-8.2-2.4-13.4-3.5l0,0c-0.3-0.1-0.8-0.2-1.5-0.3
							c-6.2-1.4-8.2-3.5-15.8-7.5c-5.1-2.6-7.3-3.3-9.9-6.3c-0.9-1.1-1.5-2-1.9-2.7L169.9,318.3z"/>
						<path class="st37" d="M170.6,292.6c-0.8-0.1-0.6-0.2-3-1c-2.2-0.7-3.3-1-3.7-1.4c-0.4-0.3-0.8-0.9-1.1-2
							c-0.3,0-2.7,0.1-4.2-1.7c-1.4-1.7-1.5-4.3-0.1-6.3c-0.3-0.6-1.6-3.3-0.7-6.5c1-3.8,4.2-5.5,4.7-5.7c0-0.2-0.5-3.8,2.2-6.1
							c2-1.7,4.8-2,7.2-0.9c1.4-2.3,4-3.5,6.5-3.1c3.1,0.5,4.5,3.2,4.6,3.5c0.8,0.3,3.3,1.3,4.6,3.7c1.7,3.2,0.6,7.7-2.8,10.8
							c-0.6,1.4-1.4,3.3-2.7,5.5c-2.1,3.6-3.9,5.8-4.4,6.3C175.2,290.4,173.1,292.8,170.6,292.6z"/>
						<path class="st38" d="M236.9,421.9c-0.3-1.3-0.5-2.6-0.8-3.9l-9.6-1.8l-4.1,5.1l0.9,7.3l15.4-0.2L236.9,421.9z"/>
						<path class="st27" d="M155.5,359.2c-0.6,3-0.5,5.6,0.7,8.4c0.8,2.1,2,4.5,3.8,5.9c1.5,1.2,3.6,1.6,5.4,1.9
							c3.6,0.6,7.2,0.7,10.8,0.6c7.9-0.1,15.7-0.6,23.6-0.2c1.9,0.1,3.7,0.3,5.6,0.1c1.8-0.1,3.5-0.5,5.2-0.7c1.3-0.1,2.7-0.3,4.1,0
							c0.5,0.1,1,0.2,1.2,0.7c0.1,0.2,0.1,0.5,0.1,0.8c0.1,0.9,0.1,1.9,0.2,2.8c0.2,2.1,0.4,4.1,0.6,6.2c0.4,4,1,7.9,1.5,11.9
							c0.5,3.8,1.1,7.7,1.4,11.6c0.3,3.4,0.2,7,1.1,10.3c0.3,0.9,0.7,1.8,1.7,1.8c1.2,0,2.5-0.6,3.7-0.9c2-0.5,4-0.9,6-1.5
							c1.7-0.4,3.3-0.9,5-1.5c0.9-0.3,1.8-0.7,2.5-1.4c1.2-1.2,0.5-3.6,0.3-5.1c-1-7.9-2.1-15.8-3.4-23.7c-0.7-4.2-1.5-8.3-2-12.5
							c-0.2-1.9-0.3-3.8-0.5-5.7c-0.1-1-0.2-2-0.6-2.9c-0.5-1.2-1.2-2.4-2-3.4l-46.6-16.7c0,0-19.2,0-24.1,3.6
							C156.2,353.3,155.5,359.2,155.5,359.2z"/>
						<path class="st37" d="M222.4,424c-0.7-0.2-1.2,0-1.6,0.7c-0.9,1.4-1.1,3.3-1.4,5c-0.3,1.9-0.6,4-0.3,5.9
							c0.1,0.8,0.4,1.4,1.1,1.7c1.2,0.5,2.8,0.4,4.1,0.4c3.3,0,6.7,0,10,0.1c5.1,0,10.2,0.3,15.3-0.2c1.9-0.2,3.9-0.4,5.7-1.2
							c0.8-0.3,1.7-0.8,2.1-1.6c0.7-1.2,0.4-2.9-0.6-3.9c-1-0.9-2.5-1-3.7-1.2c-2.4-0.4-4.7-1.1-6.9-2.1c-1.8-0.8-3.5-1.8-5.1-3.1
							c-0.9-0.8-1.7-1.6-2.6-2.4c-0.3-0.2-0.6-0.5-0.9-0.6c-1-0.3-1.4,1.2-1.7,1.8c-0.4,0.7-1,1.3-1.8,1.7c-2.8,1.5-5.7,1-8.5,0
							C224.6,424.8,223.5,424.3,222.4,424z"/>
						<g>
							<defs>
								<path id="XMLID_65_" d="M164.3,294c-0.9,1.2-1.4,2.6-2,3.9c-0.7,1.7-1.3,3.4-1.9,5.1c-1.2,3.5-2.2,7-2.9,10.6
									c-1.5,7.7-1.8,15.6-2.3,23.5c-0.2,3.7-0.5,7.4-0.8,11.1c-0.2,2.8,0,5.7,1.1,8.4c0.4,0.9,1.1,2.2,2.3,1.8
									c0.6-0.2,1.1-0.7,1.5-1.2c1-1,1.9-2.2,3-3c2.6-1.9,6.1-2.7,9.2-3.6c3.6-1,7.3-1.5,10.9-2.4c0.8-0.2,1.5-0.4,2.3-0.7
									c0.6-6,1.2-12,2-17.9c0.8-6.1,0.6-12.4-1.2-18.4c-0.9-3-2.2-6-3.9-8.7c-1.8-2.8-4.3-5.3-6.3-8l-9.8-2.1L164.3,294z"/>
							</defs>
							<use xlink:href="#XMLID_65_"  style="overflow:visible;fill:#12A189;"/>
							<clipPath id="XMLID_19_">
								<use xlink:href="#XMLID_65_"  style="overflow:visible;"/>
							</clipPath>
							<path class="st58" d="M163.5,311c0,3.6,0.1,3.6,0.3,7.3c0.2,3.9,0.1,7.9,1.2,11.7c1,3.5,3.4,7.6,7.5,7.7c1,0,4.9-0.4,5.1-1.4
								c0.1-0.3-0.5-1.2-0.7-1.5c-0.8-1.9-5.6-13-7.2-16.7c-0.1-0.2-0.2-0.5-0.3-0.7L163.5,311z"/>
						</g>
						<g>
							<defs>
								<path id="XMLID_66_" d="M173.7,335.3c0.3,2.4,1.1,4.9,2.1,7.1c0.5,1.1,1.1,2.2,2,3c1.5,1.4,3.5,2.3,5.3,3.2
									c6.5,2.9,4.2,2.1,8.4,3.5c8.3,2.8,18.2,4.8,20.9,5.4c3,3.2,5.4,3.8,6.4,4c0.4,0.1,1.7,0.4,3.3,0.4c1,0,1.9,0,2.9,0.1
									c1.4,0.2,2.7,1.1,4.1,1.4c1.3,0.3,2.8-0.1,3-1.6c0.1-0.7-0.3-1.3-0.8-1.8c-2.2-2.3-4.9-3.4-5.2-3.5
									c-3.4-1.1-7.2-2.4-11.5-3.6c-7.8-5.2-13.5-8.3-17.8-10.4c-2.2-1-6.8-2.9-9.9-7.6c-0.6-0.9-1.2-1.9-1.7-2.9L173.7,335.3z"/>
							</defs>
							<use xlink:href="#XMLID_66_"  style="overflow:visible;fill:#D08B73;"/>
							<clipPath id="XMLID_20_">
								<use xlink:href="#XMLID_66_"  style="overflow:visible;"/>
							</clipPath>
							<path class="st59" d="M172.3,338.4c0,0,5.7-2.8,7.6-2.9c2-0.1,9.2-0.8,9.2-0.8l-3.7-5.1l-12.7,4.4L172.3,338.4z"/>
						</g>
						<g>
							<defs>
								<path id="XMLID_67_" d="M178.5,296c0.4-1,1.1-2,1.9-2.7c1.1-1,2.5-1.2,3.9-1.7c0.9-0.3,1.7-0.5,1.8-1.6c0-0.1,1.2-6.9,1.3-7
									c0.3-0.4,1.1-0.3,1.6-0.5c2.6-0.9-0.8-4.6-1.4-5.5c-0.5-0.8-0.1-1.4-0.1-2.3c0-0.6-0.3-1.1-0.5-1.6
									c-0.2-0.6-0.3-1.2-0.3-1.9c0-0.4-0.1-0.9-0.1-1.3c-0.7,0.4-0.5-0.1-1.3-0.1c-0.9,0-1.2,0.8-1.4,1.6
									c-0.5,1.3-0.8,2.3-1.8,3.3c-0.9,0.8-1.6,1.5-1.9,2.7c-0.1,0.4,0.3,4.8-1.3,3.7c-0.8-0.5-0.7-2.4-0.9-3.2
									c-0.2-1.1-0.7-1.6-1.5-2.3c-1-0.9-1.2-2.7-2.9-2.3c-2.4,0.6-1.2,3.5-0.8,5c0.3,1,0.6,2.2,1.4,2.9c0.6,0.5,1.3,0.4,2,0.1
									c0,0-0.1,0.1-0.1,0.2c-0.4,0.9,0.1,1.7,0.1,2.4c0,1.2-1.3,2.2-2,2.7c-1.7,1.2-3.5,1.1-4.1,1c-0.3,0.4-0.8,1-1.7,1.5
									c-1.1,0.6-2,0.7-2.5,0.7L178.5,296z"/>
							</defs>
							<use xlink:href="#XMLID_67_"  style="overflow:visible;fill:#D08B73;"/>
							<clipPath id="XMLID_21_">
								<use xlink:href="#XMLID_67_"  style="overflow:visible;"/>
							</clipPath>
							<path class="st60" d="M185.2,291.4c0.4,0.5-6.2,0.4-9.1-3.5c1,2.9,6.5,7.8,6.5,7.8L185.2,291.4z"/>
						</g>
						<path class="st31" d="M162.3,294.7c-0.9-0.3,0.8-2.7,1.1-3.1c0.7-1,1.6-1.7,2.9-1.8c1.5-0.2,3.2,0.3,4.6,0.9
							c2.5,1.2,4.8,3,7,4.7c1.7,1.3,3.6,2.8,4.8,4.6c0.3,0.4,0.5,0.9,0.6,1.4c0.1,0.4,0.1,0.7,0.2,1.1c0.1,0.4,0.3,1.1,0.2,1.6
							c-0.1,0.5-0.4,0.2-0.6-0.1c-0.9-1-1.7-2.2-2.5-3.3c-1.6-2-3.5-3.6-5.8-4.9c-1.7-1-3.5-1.7-5.4-1.8c-2.2-0.2-4.2,0.6-6.3,0.8
							C162.6,294.7,162.4,294.8,162.3,294.7z"/>
						<path class="st61" d="M163.4,310c1.7,6,3.1,12,4.8,18c0.6,2,1.2,4.2,2.5,5.9c0.8,1.1,2.2,1.5,2.2,1.5c0.4,0.2,0.7,0.3,1.1,0.4
							c1.2,0.2,2-0.4,3.3-1c2.3-1,2.4-0.3,4.9-1.4c1.3-0.6,1.6-1,2.7-1.1c0.6-0.1,1.1-0.1,1.3-0.5c0.3-0.5-0.1-1.3-0.2-1.5
							c-0.2-0.4,0.3,0.1-1.3-7.7c-1.2-5.9-2-12-4.1-17.7c-0.3-0.7-0.6-1.4-0.9-2.1L163.4,310z"/>
						<path class="st33" d="M175.3,278.3c-0.2-1-1.1-0.4-1.3-1.3c-0.2-0.9,0.7-0.7,0.5-1.5c-0.1-0.8-1.8-0.6-1.2,2
							C174,280.1,175.5,279.2,175.3,278.3z"/>
					</g>
					<g>
						<path class="st45" d="M200.6,383.3h-40.2c-1.1,0-2-0.9-2-2v-4.4c0-1.1,0.9-2,2-2h40.2c1.1,0,2,0.9,2,2v4.4
							C202.6,382.4,201.7,383.3,200.6,383.3z"/>
						<path class="st45" d="M147.7,348.1c0-7.2,0.2-14.3-0.1-21.5c-0.2-4.7-0.1-9.5,0.5-14.2c0.3-2.1,1.7-11.5,5.8-9.7
							c0.8,0.3,1.1,1.5,1.3,2c-0.2,14.5-0.4,29-0.5,43.4c0,1.9-1.3,3.4-2.8,3.4h-1.3C149,351.5,147.7,350,147.7,348.1z"/>
						<path class="st46" d="M147.5,323.7v45.5c0,3.7,1.5,7.2,4,9.8c2.6,2.6,6.1,4,9.8,4h34"/>
						<rect x="175.9" y="383.3" class="st47" width="3.4" height="49.4"/>
						<rect x="173.2" y="405.9" class="st47" width="9" height="16.9"/>
						<path class="st47" d="M207.8,434.4c-4-2.7-15.1-9.3-30.8-9.1c-14.9,0.2-25.5,6.4-29.5,9.1c0-0.9,0-1.9,0-2.8
							c4.3-2.7,14.8-8.6,29.5-8.8c15.5-0.2,26.6,6.1,30.8,8.8C207.8,432.5,207.8,433.4,207.8,434.4z"/>
						<circle class="st47" cx="147.5" cy="434.4" r="3.9"/>
						<circle class="st47" cx="207.8" cy="434.4" r="3.9"/>
						<circle class="st47" cx="177.7" cy="434.4" r="3.6"/>
					</g>
				</g>
				<g>
					<g>
						<path class="st45" d="M288.2,377.1h40.2c1.1,0,2-0.9,2-2v-4.4c0-1.1-0.9-2-2-2h-40.2c-1.1,0-2,0.9-2,2v4.4
							C286.2,376.2,287.1,377.1,288.2,377.1z"/>
						<path class="st62" d="M330.5,376.5c-14.8,0-29.5,0-44.3,0"/>
						<rect x="306.6" y="377.1" class="st63" width="3.4" height="55.6"/>
						<rect x="303.9" y="405.9" class="st47" width="9" height="16.9"/>
						<path class="st47" d="M278.2,434.4c4-2.7,15.1-9.3,30.8-9.1c14.9,0.2,25.5,6.4,29.5,9.1c0-0.9,0-1.9,0-2.8
							c-4.3-2.7-14.8-8.6-29.5-8.8c-15.5-0.2-26.6,6.1-30.8,8.8C278.2,432.5,278.2,433.4,278.2,434.4z"/>
						<circle class="st47" cx="338.5" cy="434.4" r="3.9"/>
						<circle class="st47" cx="278.2" cy="434.4" r="3.9"/>
						<circle class="st47" cx="308.3" cy="434.4" r="3.6"/>
					</g>
					<g>
						<path class="st37" d="M333.1,417c0,0-3.6,10.4-4.1,15c-0.5,4.6,0.7,6.8,2,6.8c1.4,0,14.9-1.1,14.9-1.1s2.3-3.6,2.3-4.3
							s-2.8-7.3-2.8-9.5c0-2.1-2-7-2-7H333.1z"/>
						<path class="st37" d="M273.6,417v8.3c0,0-7.3,6.8-7.3,9.1c0,2.3,3,4.1,5.1,3.8c2.1-0.3,12.9,0.3,13.8-0.7
							c1-1,1.3-12.9,1.3-12.9l-1.6-7.7H273.6z"/>
						<g>
							<defs>
								<path id="XMLID_33_" d="M290.7,343.7c0,0-9.8,4.6-13.4,9.6c-3.6,5.1-4.9,4.6-6.5,6.7c-1.6,2.1-2,3.7-0.8,6.4
									c1.1,2.6,1.8,47.9,1.8,47.9v6.2c0,0,3.8-1.1,5.6-1c1.8,0.2,6.6,1,8.4,1.3c1.8,0.3,1.1-5.5,1.1-5.5l1.5-4.7
									c0,0,1.3-30.8,2.3-33.4c1-2.6,9.1-7.2,9.1-7.2s0-1.3,8.8,0c8.8,1.3,17.3-2.9,19.2-0.7c2,2.3,2.3,13.7,2.3,19.9
									c0,6.2,0.7,10.4,0,14c-0.7,3.6,1.3,13,1.6,14.3c0.3,1.3,0.2,2.8,0.2,2.8s1.7-1.2,5-1.2c3.3,0,8.8-0.3,8.8-0.3
									s-2.3-7.5,0-12.4c2.3-4.9,3.3-23.2,3.3-28.4c0-5.2,2.3-15.3,0-19.2c-2.3-3.9-24.1-15.2-24.1-15.2H290.7z"/>
							</defs>
							<use xlink:href="#XMLID_33_"  style="overflow:visible;fill:#434E84;"/>
							<clipPath id="XMLID_22_">
								<use xlink:href="#XMLID_33_"  style="overflow:visible;"/>
							</clipPath>
							<path class="st64" d="M299.8,369.9c0,0-11.1,6.8-14.5,6.8c-3.4,0,3.9,0.7,4.6,7.4C290.2,387.9,299.8,369.9,299.8,369.9z"/>
							<path class="st64" d="M298,411.8c0,0-11.1,2.6-14.5,2.6c-3.4,0,3.9,0.3,4.6,2.8C288.4,418.6,298,411.8,298,411.8z"/>
							<path class="st64" d="M326.4,368.6c0,0,6.5,3.9,9.9,3.9c3.4,0-6.5,2.3-6.5,6.1C329.8,382.4,326.4,368.6,326.4,368.6z"/>
							<path class="st64" d="M326.4,406.4c0,0,6.5,3.9,9.9,3.9c3.4,0-6.5,2.3-6.5,6.1C329.8,420.1,326.4,406.4,326.4,406.4z"/>
						</g>
						<g>
							<defs>
								<path id="XMLID_4_" d="M300,286.2c-9.7,3.9-21.5,6.7-24.4,18c-0.7,2.8-1.1,5.6-1.8,8.4c-0.5,1.9-2.5,4.9-1.6,6.9
									c1.3,2.6,7.9,3.5,10.4,3.6l17.4,28.2l22.5-5.4l13-24.8l4.1-1.2c0,0,2.4,0.2,2.4-1.1c0-3.2-1.4-6.8-2.1-9.8
									c-1-4.5-1.5-10.2-3.5-14.3c-2.3-4.8-8.4-4.9-13-6c-3.5-0.8-6.9-1.7-10.4-2.5H300z"/>
							</defs>
							<use xlink:href="#XMLID_4_"  style="overflow:visible;fill:#4485F4;"/>
							<clipPath id="XMLID_23_">
								<use xlink:href="#XMLID_4_"  style="overflow:visible;"/>
							</clipPath>
							<path class="st65" d="M288.5,322.3c0,0,1,0.4,1.4-1c1-3.6,1.9-11.6,1.8-13.7c-0.2-2.8,1.2,11.9,0,16.3c-1.1,4.4-3.8,7-3.8,7
								L288.5,322.3z"/>
							<path class="st65" d="M326.6,322.4c-0.4-0.1-0.8-0.5-0.9-0.9c-0.5-2.7-2-12-1.9-14.3c0.2-2.8-1.2,11.9,0,16.3
								c1.1,4.4,3.8,7,3.8,7l-0.3-7.9L326.6,322.4z"/>
							<ellipse class="st66" cx="306.8" cy="291.3" rx="12.1" ry="10.8"/>
						</g>
						<g>
							<defs>
								<path id="XMLID_47_" d="M298.4,286.6c-0.2,0.1,0,6.2,0,6.7c0,1-0.1,1.7,0.3,2.5c1.1,2,3,3.6,5.3,3.8
									c3.8,0.4,7.4-0.7,10.4-2.8c0.3-0.2,2.3-2.6,2.3-2.9v-11.7C316.6,282.2,298.4,286.6,298.4,286.6z"/>
							</defs>
							<use xlink:href="#XMLID_47_"  style="overflow:visible;fill:#D08B73;"/>
							<clipPath id="XMLID_25_">
								<use xlink:href="#XMLID_47_"  style="overflow:visible;"/>
							</clipPath>
							<path class="st67" d="M296.8,292.3c3.7,2.4,6.7,3.4,10.6,3.1c3.9-0.4,11.6-7.8,11.6-7.8l-1.5-5.4l-20.7,2.9V292.3z"/>
						</g>
						<path class="st44" d="M293.8,263c0,0-0.3,14.8,0,19.2c0.3,4.4,5.2,9.5,8.3,9.9c3.1,0.5,6.7,2.1,8.5,0c1.8-2.1,6.4-4.9,7.2-8.5
							c0.8-3.6-0.3-13.7,0-14.8c0.3-1.1-0.8-9.5-2.6-11.1c-1.8-1.6-7-2.1-9.3-2.1C303.6,255.6,295.3,256.8,293.8,263z"/>
						<path class="st38" d="M297.2,267.7c0,0-1.6,7.2-1.5,9.5c0.2,2.3,0.2,6.7,2.1,6.5c2-0.2,4.1-4.9,7.8-4.9c3.7,0,5.4,3.9,7.8,3.7
							c2.4-0.2,2.9-2.9,3.1-7.5c0.2-4.6-3.6-12.1-5.9-12.1c-2.3,0-1.5,2.3-4.6,2.3c-3.1,0-3.3-2.3-5.4-2.3
							C298.7,263,297.2,267.7,297.2,267.7z"/>
						<g>
							<defs>
								<path id="XMLID_24_" d="M327.4,322.6c0,0,2.4-3.6,5.3-3.9c2.9-0.2,8.1,0.3,8.1,0.3l-3.1,19.5c0,0,1,2.2,0.2,3.3
									c-0.7,1.1-4.4,2.4-4.4,2.4l-19.9,11.6h-1.7l-1-2.3l-2.7-0.5l-2.1,2.8h-2.4v-7.1l3.8-2.3l2.8,1.8c0,0,13.2-8.2,14.9-10.4
									c1.7-2.3,1.7-2.3,1.7-2.3L327.4,322.6z"/>
							</defs>
							<use xlink:href="#XMLID_24_"  style="overflow:visible;fill:#D08B73;"/>
							<clipPath id="XMLID_26_">
								<use xlink:href="#XMLID_24_"  style="overflow:visible;"/>
							</clipPath>
							<path class="st68" d="M324.3,327.3c0,0,4.2-4.7,8.5-5.1c4.2-0.3,10.9-0.2,10.9-0.2l0.7-5.1l-13.5-1.6l-8.6,8L324.3,327.3z"/>
						</g>
						<g>
							<defs>
								<path id="XMLID_16_" d="M288.5,322.3l0.5,13.1l14.7,13.5v7.1h2.4l2.1-2.8l2.7,0.5l1,2.3c0,0,3.1,0.7,3.3,1.6
									c0.2,0.9-1.7,7.1-2.7,7.3c-1,0.2-7.8-0.6-7.8-0.6l-6-4c0,0,0.2-7.3,0-8.4c-0.2-1.1-17-7.9-18.6-9.9c-0.7-0.8-1-2.4-1.8-5.4
									c-1.8-6.3-3.2-12.9-3.6-16.4c1.3-0.3,3.5,0,5.2-0.1C283.7,319.8,286.4,321.5,288.5,322.3z"/>
							</defs>
							<use xlink:href="#XMLID_16_"  style="overflow:visible;fill:#BC6C56;"/>
							<clipPath id="XMLID_27_">
								<use xlink:href="#XMLID_16_"  style="overflow:visible;"/>
							</clipPath>
							<path class="st69" d="M274.2,319.3v3.6c0,0,6.3-0.8,7.7-0.7c1.4,0.2,7.5,2.3,7.5,2.3l1.5-3.3
								C290.9,321.2,275.9,318.7,274.2,319.3z"/>
						</g>
					</g>
				</g>
				<g>
					<path class="st21" d="M482.4,340.4H216.2c-2,0-3.6,1.6-3.6,3.6v2.4c0,2,1.6,3.6,3.6,3.6h266.2c2,0,3.6-1.6,3.6-3.6V344
						C486,342,484.4,340.4,482.4,340.4z"/>
					<path class="st70" d="M482.4,347.9H216.2c-2,0-3.6-1.6-3.6-3.6v2.1c0,2,1.6,3.6,3.6,3.6h266.2c2,0,3.6-1.6,3.6-3.6v-2.1
						C486,346.3,484.4,347.9,482.4,347.9z"/>
					<path class="st71" d="M439.8,350l1.1,1.9c1.1,2,3.3,3.2,5.6,3.2H459l-0.5-5.1H439.8z"/>
					<polygon class="st37" points="459,355.1 467.4,438.4 471.1,438.4 471.1,350 458.5,350 					"/>
					<path class="st71" d="M239.6,355.1h12.6c2.3,0,4.4-1.2,5.6-3.2l1.1-1.9h-18.7L239.6,355.1z"/>
					<polygon class="st37" points="227.5,350 227.5,438.4 231.2,438.4 240.1,350 					"/>
				</g>
				<g>
					<polygon class="st71" points="285.2,337.7 255.8,337.7 266.7,302.3 296.1,302.3 					"/>
					<polygon class="st37" points="287.7,337.7 258.3,337.7 269.2,302.3 298.5,302.3 					"/>
					<rect x="227.5" y="336.6" class="st71" width="53.9" height="3.7"/>
					<rect x="254.4" y="336.6" class="st37" width="31" height="3.7"/>
					<path class="st22" d="M281.7,320.7c0.4-2-0.1-3.8-1.3-4.2c-1.1-0.4-2.4,0.9-2.8,2.9c-0.4,2,0.1,3.8,1.3,4.2
						C280,323.9,281.3,322.6,281.7,320.7z"/>
				</g>
				<g>
					<rect x="322.1" y="302.3" class="st71" width="44.8" height="35.4"/>
					<rect x="323.5" y="302.3" class="st37" width="47" height="35.4"/>
					<rect x="323.7" y="337.7" class="st37" width="45.4" height="2.7"/>
					<circle class="st22" cx="346.4" cy="320" r="3.5"/>
				</g>
				<g>
					<polygon class="st71" points="422.9,337.7 452.2,337.7 441.4,302.3 412,302.3 					"/>
					<polygon class="st37" points="420.4,337.7 449.8,337.7 438.9,302.3 409.5,302.3 					"/>
					<rect x="426.7" y="336.6" class="st71" width="53.9" height="3.7"/>
					<rect x="422.6" y="336.6" class="st37" width="31" height="3.7"/>
					<path class="st22" d="M426.4,320.7c-0.4-2,0.1-3.8,1.3-4.2c1.1-0.4,2.4,0.9,2.8,2.9c0.4,2-0.1,3.8-1.3,4.2
						S426.8,322.6,426.4,320.7z"/>
				</g>
			</g>
			<line class="st72" x1="86.5" y1="439.3" x2="662.5" y2="439.3"/>
		</g>
	</g>
</g>
<g id="DESIGNED_BY_FREEPIK">
</g>
</svg>
